999
dxflib 3.3.4.0
  0
SECTION
  2
HEADER
  9
$ACADVER
  1
AC1015
  9
$HANDSEED
  5
FFFF
  9
$ANGBASE
 50
0.0
  9
$ATTMODE
 70
1
  9
$AUNITS
 70
0
  9
$AUPREC
 70
0
  9
$CELTSCALE
 40
1.0
  9
$CHAMFERA
 40
0.0
  9
$CHAMFERB
 40
0.0
  9
$CHAMFERC
 40
0.0
  9
$CHAMFERD
 40
0.0
  9
$CMLJUST
 70
0
  9
$CMLSCALE
 40
1.0
  9
$DIMADEC
 70
0
  9
$DIMALTD
 70
2
  9
$DIMALTF
 40
25.399999999999999
  9
$DIMALTRND
 40
0.0
  9
$DIMALTTD
 70
2
  9
$DIMALTTZ
 70
0
  9
$DIMALTU
 70
2
  9
$DIMALTZ
 70
0
  9
$DIMAPOST
  1

  9
$DIMASZ
 40
2.5
  9
$DIMATFIT
 70
3
  9
$DIMAUNIT
 70
0
  9
$DIMAZIN
 70
2
  9
$DIMCEN
 40
0.09
  9
$DIMDEC
 70
4
  9
$DIMDLE
 40
0.0
  9
$DIMDLI
 40
0.38
  9
$DIMDSEP
 70
46
  9
$DIMEXE
 40
1.25
  9
$DIMEXO
 40
0.625
  9
$DIMFRAC
 70
0
  9
$DIMGAP
 40
0.625
  9
$DIMJUST
 70
0
  9
$DIMLFAC
 40
1.0
  9
$DIMLUNIT
 70
2
  9
$DIMLWD
 70
-2
  9
$DIMLWE
 70
-2
  9
$DIMPOST
  1

  9
$DIMRND
 40
0.0
  9
$DIMSCALE
 40
1.0
  9
$DIMTAD
 70
0
  9
$DIMTDEC
 70
4
  9
$DIMTFAC
 40
1.0
  9
$DIMTM
 40
0.0
  9
$DIMTOLJ
 70
1
  9
$DIMTP
 40
0.0
  9
$DIMTSZ
 40
0.0
  9
$DIMTVP
 40
0.0
  9
$DIMTXT
 40
2.5
  9
$DIMTZIN
 70
0
  9
$DIMZIN
 70
8
  9
$DWGCODEPAGE
  3
ANSI_1252
  9
$ELEVATION
 40
0.0
  9
$EXTMAX
 10
-100000000000000000000.0
 20
-100000000000000000000.0
 30
-100000000000000000000.0
  9
$EXTMIN
 10
100000000000000000000.0
 20
100000000000000000000.0
 30
100000000000000000000.0
  9
$FILLETRAD
 40
0.5
  9
$INSBASE
 10
0.0
 20
0.0
 30
0.0
  9
$INSUNITS
 70
4
  9
$LIMMAX
 10
12.0
 20
9.0
  9
$LIMMIN
 10
0.0
 20
0.0
  9
$LTSCALE
 40
1.0
  9
$LUNITS
 70
2
  9
$LUPREC
 70
4
  9
$MAXACTVP
 70
2
  9
$PDMODE
 70
0
  9
$PDSIZE
 40
0.0
  9
$PELEVATION
 40
0.0
  9
$PEXTMAX
 10
-100000000000000000000.0
 20
-100000000000000000000.0
 30
-100000000000000000000.0
  9
$PEXTMIN
 10
100000000000000000000.0
 20
100000000000000000000.0
 30
100000000000000000000.0
  9
$PINSBASE
 10
0.0
 20
0.0
 30
0.0
  9
$PLIMMAX
 10
12.0
 20
9.0
  9
$PLIMMIN
 10
0.0
 20
0.0
  9
$PLINEWID
 40
0.0
  9
$PROXYGRAPHICS
 70
1
  9
$PUCSORG
 10
0.0
 20
0.0
 30
0.0
  9
$PUCSXDIR
 10
1.0
 20
0.0
 30
0.0
  9
$PUCSYDIR
 10
0.0
 20
1.0
 30
0.0
  9
$SHADEDGE
 70
3
  9
$SHADEDIF
 70
70
  9
$SKETCHINC
 40
0.1
  9
$SPLINESEGS
 70
8
  9
$SPLINETYPE
 70
6
  9
$SURFTAB1
 70
6
  9
$SURFTAB2
 70
6
  9
$SURFTYPE
 70
6
  9
$SURFU
 70
6
  9
$SURFV
 70
6
  9
$TEXTSIZE
 40
2.5
  9
$THICKNESS
 40
0.0
  9
$TRACEWID
 40
0.05
  9
$TREEDEPTH
 70
3020
  9
$UCSORG
 10
0.0
 20
0.0
 30
0.0
  9
$UCSXDIR
 10
1.0
 20
0.0
 30
0.0
  9
$UCSYDIR
 10
0.0
 20
1.0
 30
0.0
  9
$UNITMODE
 70
0
  9
$USERI1
 70
0
  9
$USERI2
 70
0
  9
$USERI3
 70
0
  9
$USERI4
 70
0
  9
$USERI5
 70
0
  9
$USERR1
 40
0.0
  9
$USERR2
 40
0.0
  9
$USERR3
 40
0.0
  9
$USERR4
 40
0.0
  9
$USERR5
 40
0.0
  0
ENDSEC
  0
SECTION
  2
TABLES
  0
TABLE
  2
VPORT
  5
8
100
AcDbSymbolTable
 70
1
  0
VPORT
  5
30
100
AcDbSymbolTableRecord
100
AcDbViewportTableRecord
  2
*Active
 70
0
 10
0.0
 20
0.0
 11
1.0
 21
1.0
 12
286.30555555555549
 22
148.5
 13
0.0
 23
0.0
 14
10.0
 24
10.0
 15
10.0
 25
10.0
 16
0.0
 26
0.0
 36
1.0
 17
0.0
 27
0.0
 37
0.0
 40
297.0
 41
1.92798353909465
 42
50.0
 43
0.0
 44
0.0
 50
0.0
 51
0.0
 71
0
 72
100
 73
1
 74
3
 75
1
 76
1
 77
0
 78
0
281
0
 65
1
110
0.0
120
0.0
130
0.0
111
1.0
121
0.0
131
0.0
112
0.0
122
1.0
132
0.0
 79
0
146
0.0
  0
ENDTAB
  0
TABLE
  2
LTYPE
  5
5
100
AcDbSymbolTable
 70
21
  0
LTYPE
  5
16
100
AcDbSymbolTableRecord
100
AcDbLinetypeTableRecord
  2
CONTINUOUS
 70
0
  3
Solid line
 72
65
 73
0
 40
0.0
  0
LTYPE
  5
31
100
AcDbSymbolTableRecord
100
AcDbLinetypeTableRecord
  2
CENTER2
 70
0
  3
Center (.5x) ___ _ ___ _ ___ _ ___ _ ___ _ ___
 72
65
 73
4
 40
28.574999999999999
 49
19.050000000000001
 74
0
 49
-3.1749999999999998
 74
0
 49
3.1749999999999998
 74
0
 49
-3.1749999999999998
 74
0
  0
LTYPE
  5
32
100
AcDbSymbolTableRecord
100
AcDbLinetypeTableRecord
  2
DIVIDEX2
 70
0
  3
Divide (2x) ________  .  .  ________  .  .  _
 72
65
 73
6
 40
63.5
 49
25.399999999999999
 74
0
 49
-12.699999999999999
 74
0
 49
0.0
 74
0
 49
-12.699999999999999
 74
0
 49
0.0
 74
0
 49
-12.699999999999999
 74
0
  0
LTYPE
  5
33
100
AcDbSymbolTableRecord
100
AcDbLinetypeTableRecord
  2
DOT2
 70
0
  3
Dot (.5x) .....................................
 72
65
 73
2
 40
3.1749999999999998
 49
0.0
 74
0
 49
-3.1749999999999998
 74
0
  0
LTYPE
  5
34
100
AcDbSymbolTableRecord
100
AcDbLinetypeTableRecord
  2
DASHDOT2
 70
0
  3
Dash dot (.5x) _._._._._._._._._._._._._._._.
 72
65
 73
4
 40
12.699999999999999
 49
6.3499999999999996
 74
0
 49
-3.1749999999999998
 74
0
 49
0.0
 74
0
 49
-3.1749999999999998
 74
0
  0
LTYPE
  5
35
100
AcDbSymbolTableRecord
100
AcDbLinetypeTableRecord
  2
DIVIDE
 70
0
  3
Divide ____ . . ____ . . ____ . . ____ . . ____
 72
65
 73
6
 40
31.75
 49
12.699999999999999
 74
0
 49
-6.3499999999999996
 74
0
 49
0.0
 74
0
 49
-6.3499999999999996
 74
0
 49
0.0
 74
0
 49
-6.3499999999999996
 74
0
  0
LTYPE
  5
36
100
AcDbSymbolTableRecord
100
AcDbLinetypeTableRecord
  2
DASHDOT
 70
0
  3
Dash dot __ . __ . __ . __ . __ . __ . __ . __
 72
65
 73
4
 40
25.399999999999999
 49
12.699999999999999
 74
0
 49
-6.3499999999999996
 74
0
 49
0.0
 74
0
 49
-6.3499999999999996
 74
0
  0
LTYPE
  5
37
100
AcDbSymbolTableRecord
100
AcDbLinetypeTableRecord
  2
BORDER
 70
0
  3
Border __ __ . __ __ . __ __ . __ __ . __ __ .
 72
65
 73
6
 40
44.450000000000003
 49
12.699999999999999
 74
0
 49
-6.3499999999999996
 74
0
 49
12.699999999999999
 74
0
 49
-6.3499999999999996
 74
0
 49
0.0
 74
0
 49
-6.3499999999999996
 74
0
  0
LTYPE
  5
38
100
AcDbSymbolTableRecord
100
AcDbLinetypeTableRecord
  2
DASHDOTX2
 70
0
  3
Dash dot (2x) ____  .  ____  .  ____  .  ___
 72
65
 73
4
 40
50.799999999999997
 49
25.399999999999999
 74
0
 49
-12.699999999999999
 74
0
 49
0.0
 74
0
 49
-12.699999999999999
 74
0
  0
LTYPE
  5
39
100
AcDbSymbolTableRecord
100
AcDbLinetypeTableRecord
  2
CENTERX2
 70
0
  3
Center (2x) ________  __  ________  __  _____
 72
65
 73
4
 40
101.59999999999999
 49
63.5
 74
0
 49
-12.699999999999999
 74
0
 49
12.699999999999999
 74
0
 49
-12.699999999999999
 74
0
  0
LTYPE
  5
3A
100
AcDbSymbolTableRecord
100
AcDbLinetypeTableRecord
  2
BORDER2
 70
0
  3
Border (.5x) __.__.__.__.__.__.__.__.__.__.__.
 72
65
 73
6
 40
22.225000000000001
 49
6.3499999999999996
 74
0
 49
-3.1749999999999998
 74
0
 49
6.3499999999999996
 74
0
 49
-3.1749999999999998
 74
0
 49
0.0
 74
0
 49
-3.1749999999999998
 74
0
  0
LTYPE
  5
3B
100
AcDbSymbolTableRecord
100
AcDbLinetypeTableRecord
  2
BORDERX2
 70
0
  3
Border (2x) ____  ____  .  ____  ____  .  ___
 72
65
 73
6
 40
88.900000000000006
 49
25.399999999999999
 74
0
 49
-12.699999999999999
 74
0
 49
25.399999999999999
 74
0
 49
-12.699999999999999
 74
0
 49
0.0
 74
0
 49
-12.699999999999999
 74
0
  0
LTYPE
  5
14
100
AcDbSymbolTableRecord
100
AcDbLinetypeTableRecord
  2
BYBLOCK
 70
0
  3

 72
65
 73
0
 40
0.0
  0
LTYPE
  5
15
100
AcDbSymbolTableRecord
100
AcDbLinetypeTableRecord
  2
BYLAYER
 70
0
  3

 72
65
 73
0
 40
0.0
  0
LTYPE
  5
3C
100
AcDbSymbolTableRecord
100
AcDbLinetypeTableRecord
  2
DASHED2
 70
0
  3
Dashed (.5x) _ _ _ _ _ _ _ _ _ _ _ _ _ _ _ _ _
 72
65
 73
2
 40
9.5250000000000004
 49
6.3499999999999996
 74
0
 49
-3.1749999999999998
 74
0
  0
LTYPE
  5
3D
100
AcDbSymbolTableRecord
100
AcDbLinetypeTableRecord
  2
CENTER
 70
0
  3
Center ____ _ ____ _ ____ _ ____ _ ____ _ ____
 72
65
 73
4
 40
50.799999999999997
 49
31.75
 74
0
 49
-6.3499999999999996
 74
0
 49
6.3499999999999996
 74
0
 49
-6.3499999999999996
 74
0
  0
LTYPE
  5
3E
100
AcDbSymbolTableRecord
100
AcDbLinetypeTableRecord
  2
DIVIDE2
 70
0
  3
Divide (.5x) __..__..__..__..__..__..__..__.._
 72
65
 73
6
 40
15.875
 49
6.3499999999999996
 74
0
 49
-3.1749999999999998
 74
0
 49
0.0
 74
0
 49
-3.1749999999999998
 74
0
 49
0.0
 74
0
 49
-3.1749999999999998
 74
0
  0
LTYPE
  5
3F
100
AcDbSymbolTableRecord
100
AcDbLinetypeTableRecord
  2
DASHED
 70
0
  3
Dashed __ __ __ __ __ __ __ __ __ __ __ __ __ _
 72
65
 73
2
 40
19.050000000000001
 49
12.699999999999999
 74
0
 49
-6.3499999999999996
 74
0
  0
LTYPE
  5
40
100
AcDbSymbolTableRecord
100
AcDbLinetypeTableRecord
  2
DOTX2
 70
0
  3
Dot (2x) .  .  .  .  .  .  .  .  .  .  .  .  .
 72
65
 73
2
 40
12.699999999999999
 49
0.0
 74
0
 49
-12.699999999999999
 74
0
  0
LTYPE
  5
41
100
AcDbSymbolTableRecord
100
AcDbLinetypeTableRecord
  2
DASHEDX2
 70
0
  3
Dashed (2x) ____  ____  ____  ____  ____  ___
 72
65
 73
2
 40
38.100000000000001
 49
25.399999999999999
 74
0
 49
-12.699999999999999
 74
0
  0
LTYPE
  5
42
100
AcDbSymbolTableRecord
100
AcDbLinetypeTableRecord
  2
DOT
 70
0
  3
Dot . . . . . . . . . . . . . . . . . . . . . .
 72
65
 73
2
 40
6.3499999999999996
 49
0.0
 74
0
 49
-6.3499999999999996
 74
0
  0
ENDTAB
  0
TABLE
  2
LAYER
  5
2
100
AcDbSymbolTable
 70
2
  0
LAYER
  5
43
100
AcDbSymbolTableRecord
100
AcDbLayerTableRecord
  2
Defpoints
 70
0
 62
7
420
16777215
  6
CONTINUOUS
290
0
370
-3
390
F
  0
LAYER
  5
10
100
AcDbSymbolTableRecord
100
AcDbLayerTableRecord
  2
0
 70
0
 62
7
420
16777215
  6
CONTINUOUS
370
25
390
F
  0
ENDTAB
  0
TABLE
  2
STYLE
  5
3
100
AcDbSymbolTable
 70
1
  0
STYLE
  5
44
100
AcDbSymbolTableRecord
100
AcDbTextStyleTableRecord
  2
Standard
 70
0
 40
0.0
 41
1.0
 50
0.0
 71
0
 42
2.5
  3

  4

1001
ACAD
1000
txt
1071
0
  0
ENDTAB
  0
TABLE
  2
VIEW
  5
6
100
AcDbSymbolTable
 70
0
  0
ENDTAB
  0
TABLE
  2
UCS
  5
7
100
AcDbSymbolTable
 70
0
  0
ENDTAB
  0
TABLE
  2
APPID
  5
9
100
AcDbSymbolTable
 70
1
  0
APPID
  5
12
100
AcDbSymbolTableRecord
100
AcDbRegAppTableRecord
  2
ACAD
 70
0
  0
APPID
  5
45
100
AcDbSymbolTableRecord
100
AcDbRegAppTableRecord
  2
QCAD
 70
0
  0
ENDTAB
  0
TABLE
  2
DIMSTYLE
  5
A
100
AcDbSymbolTable
 70
1
100
AcDbDimStyleTable
 71
0
  0
DIMSTYLE
105
27
100
AcDbSymbolTableRecord
100
AcDbDimStyleTableRecord
  2
Standard
 41
2.5
 42
0.625
 43
3.75
 44
1.25
 70
0
 73
0
 74
0
 77
1
 78
8
140
2.5
141
2.5
143
0.03937007874016
147
0.625
171
3
172
1
271
2
272
2
274
3
278
44
283
0
284
8
340
44
  0
ENDTAB
  0
TABLE
  2
BLOCK_RECORD
  5
1
100
AcDbSymbolTable
 70
1
  0
BLOCK_RECORD
  5
1F
100
AcDbSymbolTableRecord
100
AcDbBlockTableRecord
  2
*Model_Space
340
22
  0
BLOCK_RECORD
  5
1B
100
AcDbSymbolTableRecord
100
AcDbBlockTableRecord
  2
*Paper_Space
340
1E
  0
BLOCK_RECORD
  5
23
100
AcDbSymbolTableRecord
100
AcDbBlockTableRecord
  2
*Paper_Space0
340
26
  0
BLOCK_RECORD
  5
46
100
AcDbSymbolTableRecord
100
AcDbBlockTableRecord
  2
block 1
340
0
  0
BLOCK_RECORD
  5
47
100
AcDbSymbolTableRecord
100
AcDbBlockTableRecord
  2
\U+30d6\U+30ed\U+30c3\U+30af\U+ff11
340
0
  0
ENDTAB
  0
ENDSEC
  0
SECTION
  2
BLOCKS
  0
BLOCK
  5
20
100
AcDbEntity
  8
0
100
AcDbBlockBegin
  2
*Model_Space
 70
0
 10
0.0
 20
0.0
 30
0.0
  3
*Model_Space
  1

  0
ENDBLK
  5
21
100
AcDbEntity
  8
0
100
AcDbBlockEnd
  0
BLOCK
  5
1C
100
AcDbEntity
 67
1
  8
0
100
AcDbBlockBegin
  2
*Paper_Space
 70
0
 10
0.0
 20
0.0
 30
0.0
  3
*Paper_Space
  1

  0
ENDBLK
  5
1D
100
AcDbEntity
 67
1
  8
0
100
AcDbBlockEnd
  0
BLOCK
  5
24
100
AcDbEntity
  8
0
100
AcDbBlockBegin
  2
*Paper_Space0
 70
0
 10
0.0
 20
0.0
 30
0.0
  3
*Paper_Space0
  1

  0
ENDBLK
  5
25
100
AcDbEntity
  8
0
100
AcDbBlockEnd
  0
BLOCK
  5
48
100
AcDbEntity
  8
0
100
AcDbBlockBegin
  2
block 1
 70
0
 10
0.0
 20
0.0
 30
0.0
  3
block 1
  1

  0
LINE
  5
49
100
AcDbEntity
100
AcDbLine
  8
0
 62
256
370
-1
  6
BYLAYER
 10
-19.999999999999886
 20
-2.0
 30
0.0
 11
-20.0
 21
1.9999999999998863
 31
0.0
  0
LINE
  5
4A
100
AcDbEntity
100
AcDbLine
  8
0
 62
256
370
-1
  6
BYLAYER
 10
0.0
 20
-2.0
 30
0.0
 11
-19.999999999999886
 21
-2.0
 31
0.0
  0
LINE
  5
4B
100
AcDbEntity
100
AcDbLine
  8
0
 62
256
370
-1
  6
BYLAYER
 10
0.0
 20
2.0
 30
0.0
 11
0.0
 21
-2.0
 31
0.0
  0
LINE
  5
4C
100
AcDbEntity
100
AcDbLine
  8
0
 62
256
370
-1
  6
BYLAYER
 10
-20.0
 20
1.9999999999998863
 30
0.0
 11
0.0
 21
2.0
 31
0.0
  0
ENDBLK
  5
4D
100
AcDbEntity
  8
0
100
AcDbBlockEnd
  0
BLOCK
  5
4E
100
AcDbEntity
  8
0
100
AcDbBlockBegin
  2
\U+30d6\U+30ed\U+30c3\U+30af\U+ff11
 70
0
 10
0.0
 20
0.0
 30
0.0
  3
\U+30d6\U+30ed\U+30c3\U+30af\U+ff11
  1

  0
LINE
  5
4F
100
AcDbEntity
100
AcDbLine
  8
0
 62
256
370
-1
  6
BYLAYER
 10
1.9923893961835688
 20
-0.1743114854953092
 30
0.0
 11
0.2492745412302497
 21
-20.098205447330201
 31
0.0
  0
LINE
  5
50
100
AcDbEntity
100
AcDbLine
  8
0
 62
256
370
-1
  6
BYLAYER
 10
-1.992389396183512
 20
0.1743114854953092
 30
0.0
 11
1.9923893961835688
 21
-0.1743114854953092
 31
0.0
  0
LINE
  5
51
100
AcDbEntity
100
AcDbLine
  8
0
 62
256
370
-1
  6
BYLAYER
 10
-3.7355042511366605
 20
-19.749582476339583
 30
0.0
 11
-1.992389396183512
 21
0.1743114854953092
 31
0.0
  0
LINE
  5
52
100
AcDbEntity
100
AcDbLine
  8
0
 62
256
370
-1
  6
BYLAYER
 10
0.2492745412302497
 20
-20.098205447330201
 30
0.0
 11
-3.7355042511366605
 21
-19.749582476339583
 31
0.0
  0
ENDBLK
  5
53
100
AcDbEntity
  8
0
100
AcDbBlockEnd
  0
ENDSEC
  0
SECTION
  2
ENTITIES
  0
LINE
  5
54
100
AcDbEntity
100
AcDbLine
  8
0
 62
1
420
16711680
370
-1
  6
BYLAYER
 10
-466.89840628237602
 20
232.96286436632269
 30
0.0
 11
-327.4311485495316
 21
220.76106038165059
 31
0.0
  0
LINE
  5
55
100
AcDbEntity
100
AcDbLine
  8
0
 62
256
370
-1
  6
BYLAYER
 10
-341.0
 20
200.0
 30
0.0
 11
-409.0
 21
200.0
 31
0.0
  0
LINE
  5
56
100
AcDbEntity
100
AcDbLine
  8
0
 62
1
420
16711680
370
-1
  6
BYLAYER
 10
-310.0
 20
420.0
 30
0.0
 11
-449.46725773284442
 21
432.20180398467221
 31
0.0
  0
LINE
  5
57
100
AcDbEntity
100
AcDbLine
  8
0
 62
1
420
16711680
370
-1
  6
BYLAYER
 10
-449.46725773284442
 20
432.20180398467221
 30
0.0
 11
-466.89840628237602
 21
232.96286436632269
 31
0.0
  0
LINE
  5
58
100
AcDbEntity
100
AcDbLine
  8
0
 62
256
370
-1
  6
BYLAYER
 10
-319.21231642356742
 20
189.9656089923393
 30
0.0
 11
-319.21231642356742
 21
189.9656089923393
 31
0.0
  0
LINE
  5
59
100
AcDbEntity
100
AcDbLine
  8
0
 62
1
420
16711680
370
-1
  6
BYLAYER
 10
-309.99999999999989
 20
420.00000000000011
 30
0.0
 11
-327.4311485495316
 21
220.76106038165059
 31
0.0
  0
LINE
  5
5A
100
AcDbEntity
100
AcDbLine
  8
0
 62
256
370
-1
  6
BYLAYER
 10
-339.0
 20
200.0
 30
0.0
 11
-339.0
 21
210.0
 31
0.0
  0
LINE
  5
5B
100
AcDbEntity
100
AcDbLine
  8
0
 62
256
370
-1
  6
BYLAYER
 10
-341.0
 20
200.0
 30
0.0
 11
-341.0
 21
210.0
 31
0.0
  0
LINE
  5
5C
100
AcDbEntity
100
AcDbLine
  8
0
 62
256
370
-1
  6
BYLAYER
 10
-341.0
 20
210.0
 30
0.0
 11
-339.0
 21
210.0
 31
0.0
  0
LINE
  5
5D
100
AcDbEntity
100
AcDbLine
  8
0
 62
256
370
-1
  6
BYLAYER
 10
-409.0
 20
200.0
 30
0.0
 11
-409.0
 21
210.0
 31
0.0
  0
LINE
  5
5E
100
AcDbEntity
100
AcDbLine
  8
0
 62
256
370
-1
  6
BYLAYER
 10
-411.0
 20
200.0
 30
0.0
 11
-411.0
 21
210.0
 31
0.0
  0
DIMENSION
  5
5F
100
AcDbEntity
  8
0
 62
9
420
12632256
370
-1
  6
BYLAYER
100
AcDbDimension
 10
-300.0
 20
352.0
 30
0.0
 11
-306.57489971296411
 21
353.875
 31
0.0
 70
0
 71
8
 72
2
 41
1.0
 42
0.0
  1

  3
Standard
100
AcDbAlignedDimension
 13
-313.14979942592828
 23
361.05020132709166
 33
0.0
 14
-300.0
 24
352.0
 34
0.0
 50
0.0
100
AcDbRotatedDimension
1001
ACAD
1000
DSTYLE
1002
{
1070
144
1040
1
1002
}
  0
LINE
  5
60
100
AcDbEntity
100
AcDbLine
  8
0
 62
256
370
-1
  6
BYLAYER
 10
-411.0
 20
210.0
 30
0.0
 11
-409.0
 21
210.0
 31
0.0
  0
DIMENSION
  5
61
100
AcDbEntity
  8
0
 62
9
420
12632256
370
-1
  6
BYLAYER
100
AcDbDimension
 10
-300.0
 20
250.0
 30
0.0
 11
-310.93268685034718
 21
251.875
 31
0.0
 70
0
 71
8
 72
2
 41
1.0
 42
0.0
  1

  3
Standard
100
AcDbAlignedDimension
 13
-321.86537370069431
 23
261.43073151791708
 33
0.0
 14
-300.0
 24
250.0
 34
0.0
 50
0.0
100
AcDbRotatedDimension
1001
ACAD
1000
DSTYLE
1002
{
1070
144
1040
1
1002
}
  0
LINE
  5
62
100
AcDbEntity
100
AcDbLine
  8
0
 62
256
370
-1
  6
BYLAYER
 10
-411.0
 20
200.0
 30
0.0
 11
-450.0
 21
200.0
 31
0.0
  0
LINE
  5
63
100
AcDbEntity
100
AcDbLine
  8
0
 62
256
370
-1
  6
BYLAYER
 10
-300.0
 20
200.0
 30
0.0
 11
-339.0
 21
200.0
 31
0.0
  0
LINE
  5
64
100
AcDbEntity
100
AcDbLine
  8
0
 62
256
370
-1
  6
BYLAYER
 10
-411.0
 20
450.0
 30
0.0
 11
-411.0
 21
440.00000000000011
 31
0.0
  0
LINE
  5
65
100
AcDbEntity
100
AcDbLine
  8
0
 62
256
370
-1
  6
BYLAYER
 10
-409.0
 20
450.0
 30
0.0
 11
-409.0
 21
440.00000000000011
 31
0.0
  0
LINE
  5
66
100
AcDbEntity
100
AcDbLine
  8
0
 62
256
370
-1
  6
BYLAYER
 10
-409.0
 20
440.00000000000011
 30
0.0
 11
-411.0
 21
440.00000000000011
 31
0.0
  0
LINE
  5
67
100
AcDbEntity
100
AcDbLine
  8
0
 62
256
370
-1
  6
BYLAYER
 10
-341.0
 20
450.0
 30
0.0
 11
-341.0
 21
440.00000000000011
 31
0.0
  0
LINE
  5
68
100
AcDbEntity
100
AcDbLine
  8
0
 62
256
370
-1
  6
BYLAYER
 10
-339.0
 20
450.0
 30
0.0
 11
-339.0
 21
440.00000000000011
 31
0.0
  0
LINE
  5
69
100
AcDbEntity
100
AcDbLine
  8
0
 62
256
370
-1
  6
BYLAYER
 10
-339.0
 20
440.00000000000011
 30
0.0
 11
-341.0
 21
440.00000000000011
 31
0.0
  0
LINE
  5
6A
100
AcDbEntity
100
AcDbLine
  8
0
 62
256
370
-1
  6
BYLAYER
 10
-450.0
 20
450.0
 30
0.0
 11
-410.99999999999989
 21
450.0
 31
0.0
  0
LINE
  5
6B
100
AcDbEntity
100
AcDbLine
  8
0
 62
256
370
-1
  6
BYLAYER
 10
-408.88258340767271
 20
450.0
 30
0.0
 11
-341.0
 21
450.0
 31
0.0
  0
LINE
  5
6C
100
AcDbEntity
100
AcDbLine
  8
0
 62
256
370
-1
  6
BYLAYER
 10
-300.0
 20
241.0
 30
0.0
 11
-310.0
 21
241.0
 31
0.0
  0
LINE
  5
6D
100
AcDbEntity
100
AcDbLine
  8
0
 62
256
370
-1
  6
BYLAYER
 10
-300.0
 20
239.0
 30
0.0
 11
-310.0
 21
239.0
 31
0.0
  0
LINE
  5
6E
100
AcDbEntity
100
AcDbLine
  8
0
 62
256
370
-1
  6
BYLAYER
 10
-310.0
 20
239.0
 30
0.0
 11
-310.0
 21
241.0
 31
0.0
  0
LINE
  5
6F
100
AcDbEntity
100
AcDbLine
  8
0
 62
256
370
-1
  6
BYLAYER
 10
-112.0
 20
360.0
 30
0.0
 11
112.0
 21
360.0
 31
0.0
  0
LINE
  5
70
100
AcDbEntity
100
AcDbLine
  8
0
 62
256
370
-1
  6
BYLAYER
 10
112.0
 20
360.0
 30
0.0
 11
111.9999999999999
 21
339.99999999999977
 31
0.0
  0
LINE
  5
71
100
AcDbEntity
100
AcDbLine
  8
0
 62
256
370
-1
  6
BYLAYER
 10
-112.0
 20
360.0
 30
0.0
 11
-112.0
 21
340.0
 31
0.0
  0
LINE
  5
72
100
AcDbEntity
100
AcDbLine
  8
0
 62
256
370
-1
  6
BYLAYER
 10
99.999999999999886
 20
339.99999999999989
 30
0.0
 11
100.0
 21
350.0
 31
0.0
  0
LINE
  5
73
100
AcDbEntity
100
AcDbLine
  8
0
 62
256
370
-1
  6
BYLAYER
 10
102.0
 20
339.99999999999989
 30
0.0
 11
101.9999999999999
 21
349.99999999999989
 31
0.0
  0
LINE
  5
74
100
AcDbEntity
100
AcDbLine
  8
0
 62
256
370
-1
  6
BYLAYER
 10
101.9999999999999
 20
349.99999999999989
 30
0.0
 11
100.0
 21
350.0
 31
0.0
  0
LINE
  5
75
100
AcDbEntity
100
AcDbLine
  8
0
 62
256
370
-1
  6
BYLAYER
 10
-102.0
 20
340.00000000000011
 30
0.0
 11
-102.0000000000001
 21
349.99999999999989
 31
0.0
  0
LINE
  5
76
100
AcDbEntity
100
AcDbLine
  8
0
 62
256
370
-1
  6
BYLAYER
 10
-100.0
 20
340.0
 30
0.0
 11
-100.0
 21
349.99999999999989
 31
0.0
  0
LINE
  5
77
100
AcDbEntity
100
AcDbLine
  8
0
 62
256
370
-1
  6
BYLAYER
 10
-100.0
 20
349.99999999999989
 30
0.0
 11
-102.0000000000001
 21
349.99999999999989
 31
0.0
  0
LINE
  5
78
100
AcDbEntity
100
AcDbLine
  8
0
 62
256
370
-1
  6
BYLAYER
 10
-102.0
 20
340.00000000000011
 30
0.0
 11
-112.0
 21
340.0
 31
0.0
  0
LINE
  5
79
100
AcDbEntity
100
AcDbLine
  8
0
 62
256
370
-1
  6
BYLAYER
 10
111.9999999999999
 20
339.99999999999977
 30
0.0
 11
102.0
 21
339.99999999999989
 31
0.0
  0
LINE
  5
7A
100
AcDbEntity
100
AcDbLine
  8
0
 62
256
370
-1
  6
BYLAYER
 10
99.999999999999886
 20
339.99999999999989
 30
0.0
 11
-100.0
 21
340.0
 31
0.0
  0
DIMENSION
  5
7B
100
AcDbEntity
  8
0
 62
9
420
12632256
370
-1
  6
BYLAYER
100
AcDbDimension
 10
-500.9375
 20
200.0
 30
0.0
 11
-502.8125
 21
325.0
 31
0.0
 70
0
 71
8
 72
2
 41
1.0
 42
0.0
  1

  3
Standard
100
AcDbAlignedDimension
 13
-450.0
 23
450.0
 33
0.0
 14
-450.0
 24
200.0
 34
0.0
 50
90.0
100
AcDbRotatedDimension
1001
ACAD
1000
DSTYLE
1002
{
1070
144
1040
1
1002
}
  0
DIMENSION
  5
7C
100
AcDbEntity
  8
0
 62
9
420
12632256
370
-1
  6
BYLAYER
100
AcDbDimension
 10
-265.73168542994489
 20
326.78705878036288
 30
0.0
 11
-266.29221434765202
 21
341.89339626939096
 31
0.0
 70
1
 71
8
 72
2
 41
1.0
 42
0.0
  1

  3
Standard
100
AcDbAlignedDimension
 13
-315.76447170835797
 23
331.16436038433932
 33
0.0
 14
-313.14979942592828
 24
361.05020132709171
 34
0.0
1001
ACAD
1000
DSTYLE
1002
{
1070
144
1040
1
1002
}
  0
DIMENSION
  5
7D
100
AcDbEntity
  8
0
 62
9
420
12632256
370
-1
  6
BYLAYER
100
AcDbDimension
 10
-466.89840628237602
 20
232.96286436632269
 30
0.0
 11
-492.61534908010714
 21
217.57283996391544
 31
0.0
 70
2
 71
8
 72
2
 41
1.0
 42
0.0
  1

  3
Standard
100
AcDb2LineAngularDimension
 13
-450.0
 23
200.0
 33
0.0
 14
-411.0
 24
200.0
 34
0.0
 15
-327.4311485495316
 25
220.76106038165059
 35
0.0
 16
-490.44537371856882
 26
223.3156488707846
 36
0.0
  0
DIMENSION
  5
7E
100
AcDbEntity
  8
0
 62
9
420
12632256
370
-1
  6
BYLAYER
100
AcDbDimension
 10
-300.0
 20
500.0
 30
0.0
 11
-375.0
 21
501.875
 31
0.0
 70
0
 71
8
 72
2
 41
1.0
 42
0.0
  1

  3
Standard
100
AcDbAlignedDimension
 13
-450.0
 23
450.0
 33
0.0
 14
-300.0
 24
450.0
 34
0.0
 50
0.0
100
AcDbRotatedDimension
1001
ACAD
1000
DSTYLE
1002
{
1070
144
1040
1
1002
}
  0
DIMENSION
  5
7F
100
AcDbEntity
  8
0
 62
9
420
12632256
370
-1
  6
BYLAYER
100
AcDbDimension
 10
-340.0
 20
480.0
 30
0.0
 11
-375.0
 21
481.875
 31
0.0
 70
0
 71
8
 72
2
 41
1.0
 42
0.0
  1

  3
Standard
100
AcDbAlignedDimension
 13
-410.0
 23
440.00000000000011
 33
0.0
 14
-340.0
 24
440.00000000000011
 34
0.0
 50
0.0
100
AcDbRotatedDimension
1001
ACAD
1000
DSTYLE
1002
{
1070
144
1040
1
1002
}
  0
DIMENSION
  5
80
100
AcDbEntity
  8
0
 62
9
420
12632256
370
-1
  6
BYLAYER
100
AcDbDimension
 10
-410.0
 20
480.0
 30
0.0
 11
-430.0
 21
481.875
 31
0.0
 70
0
 71
8
 72
2
 41
1.0
 42
0.0
  1

  3
Standard
100
AcDbAlignedDimension
 13
-450.0
 23
450.0
 33
0.0
 14
-410.0
 24
440.00000000000011
 34
0.0
 50
0.0
100
AcDbRotatedDimension
1001
ACAD
1000
DSTYLE
1002
{
1070
144
1040
1
1002
}
  0
DIMENSION
  5
81
100
AcDbEntity
  8
0
 62
9
420
12632256
370
-1
  6
BYLAYER
100
AcDbDimension
 10
-300.0
 20
480.0
 30
0.0
 11
-320.0
 21
481.875
 31
0.0
 70
0
 71
8
 72
2
 41
1.0
 42
0.0
  1

  3
Standard
100
AcDbAlignedDimension
 13
-340.0
 23
440.00000000000011
 33
0.0
 14
-300.0
 24
450.0
 34
0.0
 50
0.0
100
AcDbRotatedDimension
1001
ACAD
1000
DSTYLE
1002
{
1070
144
1040
1
1002
}
  0
LINE
  5
82
100
AcDbEntity
100
AcDbLine
  8
0
 62
256
370
-1
  6
BYLAYER
 10
-315.76447170835803
 20
331.16436038433926
 30
0.0
 11
-319.74925050072511
 21
331.51298335532988
 31
0.0
  0
LINE
  5
83
100
AcDbEntity
100
AcDbLine
  8
0
 62
256
370
-1
  6
BYLAYER
 10
-313.14979942592828
 20
361.0502013270916
 30
0.0
 11
-315.76447170835803
 21
331.16436038433926
 31
0.0
  0
LINE
  5
84
100
AcDbEntity
100
AcDbLine
  8
0
 62
256
370
-1
  6
BYLAYER
 10
-317.13457821829519
 20
361.39882429808222
 30
0.0
 11
-313.14979942592828
 21
361.0502013270916
 31
0.0
  0
LINE
  5
85
100
AcDbEntity
100
AcDbLine
  8
0
 62
256
370
-1
  6
BYLAYER
 10
-319.74925050072511
 20
331.51298335532988
 30
0.0
 11
-317.13457821829519
 21
361.39882429808222
 31
0.0
  0
LINE
  5
86
100
AcDbEntity
100
AcDbLine
  8
0
 62
256
370
-1
  6
BYLAYER
 10
-300.0
 20
239.0
 30
0.0
 11
-300.0
 21
200.0
 31
0.0
  0
LINE
  5
87
100
AcDbEntity
100
AcDbLine
  8
0
 62
256
370
-1
  6
BYLAYER
 10
-112.0
 20
290.00000000000034
 30
0.0
 11
-112.0
 21
280.00000000000068
 31
0.0
  0
LINE
  5
88
100
AcDbEntity
100
AcDbLine
  8
0
 62
256
370
-1
  6
BYLAYER
 10
-112.0
 20
280.00000000000068
 30
0.0
 11
-100.0
 21
280.00000000000011
 31
0.0
  0
LINE
  5
89
100
AcDbEntity
100
AcDbLine
  8
0
 62
256
370
-1
  6
BYLAYER
 10
-100.0
 20
280.00000000000011
 30
0.0
 11
-100.0
 21
230.00000000000009
 31
0.0
  0
LINE
  5
8A
100
AcDbEntity
100
AcDbLine
  8
0
 62
256
370
-1
  6
BYLAYER
 10
100.0
 20
200.0
 30
0.0
 11
99.999999999999986
 21
229.99999999999997
 31
0.0
  0
LINE
  5
8B
100
AcDbEntity
100
AcDbLine
  8
0
 62
256
370
-1
  6
BYLAYER
 10
100.0
 20
229.99999999999997
 30
0.0
 11
112.0
 21
230.00000000000009
 31
0.0
  0
LINE
  5
8C
100
AcDbEntity
100
AcDbLine
  8
0
 62
256
370
-1
  6
BYLAYER
 10
112.0
 20
230.00000000000009
 30
0.0
 11
112.0
 21
240.00000000000009
 31
0.0
  0
LINE
  5
8D
100
AcDbEntity
100
AcDbLine
  8
0
 62
256
370
-1
  6
BYLAYER
 10
112.0
 20
240.00000000000009
 30
0.0
 11
100.0
 21
240.00000000000009
 31
0.0
  0
LINE
  5
8E
100
AcDbEntity
100
AcDbLine
  8
0
 62
256
370
-1
  6
BYLAYER
 10
100.0
 20
240.00000000000009
 30
0.0
 11
100.0
 21
270.00000000000011
 31
0.0
  0
LINE
  5
8F
100
AcDbEntity
100
AcDbLine
  8
0
 62
256
370
-1
  6
BYLAYER
 10
102.0
 20
260.00000000000011
 30
0.0
 11
112.0
 21
260.00000000000023
 31
0.0
  0
LINE
  5
90
100
AcDbEntity
100
AcDbLine
  8
0
 62
256
370
-1
  6
BYLAYER
 10
112.0
 20
260.00000000000023
 30
0.0
 11
112.0
 21
280.00000000000011
 31
0.0
  0
LINE
  5
91
100
AcDbEntity
100
AcDbLine
  8
0
 62
256
370
-1
  6
BYLAYER
 10
112.0
 20
280.00000000000011
 30
0.0
 11
100.0
 21
280.00000000000011
 31
0.0
  0
LINE
  5
92
100
AcDbEntity
100
AcDbLine
  8
0
 62
256
370
-1
  6
BYLAYER
 10
99.999999999999986
 20
280.00000000000011
 30
0.0
 11
99.999999999999986
 21
290.00000000000011
 31
0.0
  0
DIMENSION
  5
93
100
AcDbEntity
  8
0
 62
9
420
12632256
370
-1
  6
BYLAYER
100
AcDbDimension
 10
-300.0
 20
180.0
 30
0.0
 11
-305.0
 21
181.875
 31
0.0
 70
0
 71
8
 72
2
 41
1.0
 42
0.0
  1

  3
Standard
100
AcDbAlignedDimension
 13
-310.0
 23
239.0
 33
0.0
 14
-300.0
 24
200.0
 34
0.0
 50
0.0
100
AcDbRotatedDimension
1001
ACAD
1000
DSTYLE
1002
{
1070
144
1040
1
1002
}
  0
DIMENSION
  5
94
100
AcDbEntity
  8
0
 62
9
420
12632256
370
-1
  6
BYLAYER
100
AcDbDimension
 10
-240.0
 20
430.0
 30
0.0
 11
-241.875
 21
405.5251006635458
 31
0.0
 70
0
 71
8
 72
2
 41
1.0
 42
0.0
  1

  3
Standard
100
AcDbAlignedDimension
 13
-313.14979942592828
 23
361.05020132709166
 33
0.0
 14
-300.0
 24
450.0
 34
0.0
 50
90.0
100
AcDbRotatedDimension
1001
ACAD
1000
DSTYLE
1002
{
1070
144
1040
1
1002
}
  0
DIMENSION
  5
95
100
AcDbEntity
  8
0
 62
9
420
12632256
370
-1
  6
BYLAYER
100
AcDbDimension
 10
-311.76221654919857
 20
422.80519916521894
 30
0.0
 11
-309.60641013536326
 21
424.49875273864563
 31
0.0
 70
1
 71
8
 72
2
 41
1.0
 42
0.0
  1

  3
Standard
100
AcDbAlignedDimension
 13
-317.13457821829519
 23
361.39882429808227
 33
0.0
 14
-313.14979942592828
 24
361.05020132709171
 34
0.0
1001
ACAD
1000
DSTYLE
1002
{
1070
144
1040
1
1002
}
  0
DIMENSION
  5
96
100
AcDbEntity
  8
0
 62
9
420
12632256
370
-1
  6
BYLAYER
100
AcDbDimension
 10
-409.0
 20
215.56736842330841
 30
0.0
 11
-410.0
 21
217.44236842330841
 31
0.0
 70
0
 71
8
 72
2
 41
1.0
 42
0.0
  1

  3
Standard
100
AcDbAlignedDimension
 13
-411.0
 23
210.0
 33
0.0
 14
-409.0
 24
210.0
 34
0.0
 50
0.0
100
AcDbRotatedDimension
1001
ACAD
1000
DSTYLE
1002
{
1070
144
1040
1
1002
}
  0
LINE
  5
97
100
AcDbEntity
100
AcDbLine
  8
0
 62
256
370
-1
  6
BYLAYER
 10
-300.0
 20
429.0
 30
0.0
 11
-310.0
 21
428.99999999999989
 31
0.0
  0
LINE
  5
98
100
AcDbEntity
100
AcDbLine
  8
0
 62
256
370
-1
  6
BYLAYER
 10
-310.0
 20
428.99999999999989
 30
0.0
 11
-310.0
 21
431.0
 31
0.0
  0
LINE
  5
99
100
AcDbEntity
100
AcDbLine
  8
0
 62
256
370
-1
  6
BYLAYER
 10
-310.0
 20
431.0
 30
0.0
 11
-300.0
 21
431.0
 31
0.0
  0
LINE
  5
9A
100
AcDbEntity
100
AcDbLine
  8
0
 62
256
370
-1
  6
BYLAYER
 10
-339.0
 20
450.0
 30
0.0
 11
-300.0
 21
450.0
 31
0.0
  0
LINE
  5
9B
100
AcDbEntity
100
AcDbLine
  8
0
 62
256
370
-1
  6
BYLAYER
 10
-300.0
 20
450.0
 30
0.0
 11
-300.0
 21
431.0
 31
0.0
  0
LINE
  5
9C
100
AcDbEntity
100
AcDbLine
  8
0
 62
256
370
-1
  6
BYLAYER
 10
-300.0
 20
429.0
 30
0.0
 11
-300.0
 21
241.0
 31
0.0
  0
LINE
  5
9D
100
AcDbEntity
100
AcDbLine
  8
0
 62
256
370
-1
  6
BYLAYER
 10
100.0
 20
200.0
 30
0.0
 11
-100.0
 21
200.00000000000009
 31
0.0
  0
LINE
  5
9E
100
AcDbEntity
100
AcDbLine
  8
0
 62
256
370
-1
  6
BYLAYER
 10
-100.0
 20
290.00000000000011
 30
0.0
 11
-112.0
 21
290.00000000000011
 31
0.0
  0
LINE
  5
9F
100
AcDbEntity
100
AcDbLine
  8
0
 62
256
370
-1
  6
BYLAYER
 10
-429.11739286794091
 20
231.21502682405571
 30
0.0
 11
-409.19349890610602
 21
229.47191196910291
 31
0.0
  0
LINE
  5
A0
100
AcDbEntity
100
AcDbLine
  8
0
 62
256
370
-1
  6
BYLAYER
 10
-409.19349890610602
 20
229.47191196910291
 30
0.0
 11
-409.54212187709658
 21
225.48713317673591
 31
0.0
  0
LINE
  5
A1
100
AcDbEntity
100
AcDbLine
  8
0
 62
256
370
-1
  6
BYLAYER
 10
-409.54212187709658
 20
225.48713317673591
 30
0.0
 11
-429.46601583893153
 21
227.2302480316888
 31
0.0
  0
LINE
  5
A2
100
AcDbEntity
100
AcDbLine
  8
0
 62
256
370
-1
  6
BYLAYER
 10
-399.23155192518851
 20
228.60035454162619
 30
0.0
 11
-379.30765796335351
 21
226.85723968667301
 31
0.0
  0
LINE
  5
A3
100
AcDbEntity
100
AcDbLine
  8
0
 62
256
370
-1
  6
BYLAYER
 10
-379.30765796335351
 20
226.85723968667301
 30
0.0
 11
-379.65628093434412
 21
222.87246089430599
 31
0.0
  0
LINE
  5
A4
100
AcDbEntity
100
AcDbLine
  8
0
 62
256
370
-1
  6
BYLAYER
 10
-379.65628093434412
 20
222.8724608943061
 30
0.0
 11
-399.58017489617907
 21
224.61557574925919
 31
0.0
  0
LINE
  5
A5
100
AcDbEntity
100
AcDbLine
  8
0
 62
256
370
-1
  6
BYLAYER
 10
-399.58017489617907
 20
224.61557574925919
 30
0.0
 11
-399.23155192518851
 21
228.60035454162619
 31
0.0
  0
LINE
  5
A6
100
AcDbEntity
100
AcDbLine
  8
0
 62
256
370
-1
  6
BYLAYER
 10
-372.0
 20
234.0
 30
0.0
 11
-372.0
 21
214.0
 31
0.0
  0
LINE
  5
A7
100
AcDbEntity
100
AcDbLine
  8
0
 62
256
370
-1
  6
BYLAYER
 10
-372.0
 20
214.0
 30
0.0
 11
-368.0
 21
214.0
 31
0.0
  0
LINE
  5
A8
100
AcDbEntity
100
AcDbLine
  8
0
 62
256
370
-1
  6
BYLAYER
 10
-368.0
 20
214.0
 30
0.0
 11
-368.0
 21
234.0
 31
0.0
  0
LINE
  5
A9
100
AcDbEntity
100
AcDbLine
  8
0
 62
256
370
-1
  6
BYLAYER
 10
-368.0
 20
234.0
 30
0.0
 11
-372.0
 21
234.0
 31
0.0
  0
LINE
  5
AA
100
AcDbEntity
100
AcDbLine
  8
0
 62
256
370
-1
  6
BYLAYER
 10
-450.0
 20
223.0
 30
0.0
 11
-440.0
 21
223.00000000000011
 31
0.0
  0
LINE
  5
AB
100
AcDbEntity
100
AcDbLine
  8
0
 62
256
370
-1
  6
BYLAYER
 10
-440.0
 20
223.00000000000011
 30
0.0
 11
-440.0
 21
220.0
 31
0.0
  0
LINE
  5
AC
100
AcDbEntity
100
AcDbLine
  8
0
 62
256
370
-1
  6
BYLAYER
 10
-440.0
 20
220.0
 30
0.0
 11
-450.0
 21
220.0
 31
0.0
  0
LINE
  5
AD
100
AcDbEntity
100
AcDbLine
  8
0
 62
256
370
-1
  6
BYLAYER
 10
-450.0
 20
200.0
 30
0.0
 11
-450.0
 21
220.0
 31
0.0
  0
LINE
  5
AE
100
AcDbEntity
100
AcDbLine
  8
0
 62
256
370
-1
  6
BYLAYER
 10
-450.0
 20
223.0
 30
0.0
 11
-450.0
 21
450.0
 31
0.0
  0
LINE
  5
AF
100
AcDbEntity
100
AcDbLine
  8
0
 62
256
370
-1
  6
BYLAYER
 10
102.0
 20
340.00000000000011
 30
0.0
 11
112.0
 21
340.00000000000011
 31
0.0
  0
LINE
  5
B0
100
AcDbEntity
100
AcDbLine
  8
0
 62
256
370
-1
  6
BYLAYER
 10
-112.0
 20
340.0
 30
0.0
 11
-102.0
 21
339.99999999999989
 31
0.0
  0
LINE
  5
B1
100
AcDbEntity
100
AcDbLine
  8
0
 62
256
370
-1
  6
BYLAYER
 10
-100.0
 20
340.0
 30
0.0
 11
100.0
 21
340.00000000000011
 31
0.0
  0
DIMENSION
  5
B2
100
AcDbEntity
  8
0
 62
9
420
12632256
370
-1
  6
BYLAYER
100
AcDbDimension
 10
-460.0
 20
200.0
 30
0.0
 11
-461.875
 21
210.0
 31
0.0
 70
0
 71
8
 72
2
 41
1.0
 42
0.0
  1

  3
Standard
100
AcDbAlignedDimension
 13
-450.0
 23
220.0
 33
0.0
 14
-450.0
 24
200.0
 34
0.0
 50
90.0
100
AcDbRotatedDimension
1001
ACAD
1000
DSTYLE
1002
{
1070
144
1040
1
1002
}
  0
DIMENSION
  5
B3
100
AcDbEntity
  8
0
 62
9
420
12632256
370
-1
  6
BYLAYER
100
AcDbDimension
 10
-350.0
 20
234.0
 30
0.0
 11
-351.875
 21
224.0
 31
0.0
 70
0
 71
8
 72
2
 41
1.0
 42
0.0
  1

  3
Standard
100
AcDbAlignedDimension
 13
-368.0
 23
214.0
 33
0.0
 14
-368.0
 24
234.0
 34
0.0
 50
90.0
100
AcDbRotatedDimension
1001
ACAD
1000
DSTYLE
1002
{
1070
144
1040
1
1002
}
  0
DIMENSION
  5
B4
100
AcDbEntity
  8
0
 62
9
420
12632256
370
-1
  6
BYLAYER
100
AcDbDimension
 10
-460.0
 20
220.0
 30
0.0
 11
-461.875
 21
221.5
 31
0.0
 70
0
 71
8
 72
2
 41
1.0
 42
0.0
  1

  3
Standard
100
AcDbAlignedDimension
 13
-450.0
 23
223.0
 33
0.0
 14
-450.0
 24
220.0
 34
0.0
 50
90.0
100
AcDbRotatedDimension
1001
ACAD
1000
DSTYLE
1002
{
1070
144
1040
1
1002
}
  0
DIMENSION
  5
B5
100
AcDbEntity
  8
0
 62
9
420
12632256
370
-1
  6
BYLAYER
100
AcDbDimension
 10
-350.0
 20
200.0
 30
0.0
 11
-351.875
 21
207.0
 31
0.0
 70
0
 71
8
 72
2
 41
1.0
 42
0.0
  1

  3
Standard
100
AcDbAlignedDimension
 13
-368.0
 23
214.0
 33
0.0
 14
-350.0
 24
200.0
 34
0.0
 50
90.0
100
AcDbRotatedDimension
1001
ACAD
1000
DSTYLE
1002
{
1070
144
1040
1
1002
}
  0
DIMENSION
  5
B6
100
AcDbEntity
  8
0
 62
9
420
12632256
370
-1
  6
BYLAYER
100
AcDbDimension
 10
-372.0
 20
265.0
 30
0.0
 11
-370.0
 21
266.875
 31
0.0
 70
0
 71
8
 72
2
 41
1.0
 42
0.0
  1

  3
Standard
100
AcDbAlignedDimension
 13
-368.0
 23
234.0
 33
0.0
 14
-372.0
 24
234.0
 34
0.0
 50
0.0
100
AcDbRotatedDimension
1001
ACAD
1000
DSTYLE
1002
{
1070
144
1040
1
1002
}
  0
DIMENSION
  5
B7
100
AcDbEntity
  8
0
 62
9
420
12632256
370
-1
  6
BYLAYER
100
AcDbDimension
 10
-450.0
 20
210.0
 30
0.0
 11
-445.0
 21
211.875
 31
0.0
 70
0
 71
8
 72
2
 41
1.0
 42
0.0
  1

  3
Standard
100
AcDbAlignedDimension
 13
-440.0
 23
220.0
 33
0.0
 14
-450.0
 24
210.0
 34
0.0
 50
0.0
100
AcDbRotatedDimension
1001
ACAD
1000
DSTYLE
1002
{
1070
144
1040
1
1002
}
  0
DIMENSION
  5
B8
100
AcDbEntity
  8
0
 62
9
420
12632256
370
-1
  6
BYLAYER
100
AcDbDimension
 10
-427.84660724317138
 20
245.74017298077192
 30
0.0
 11
-417.72124324460208
 21
246.73648061221755
 31
0.0
 70
1
 71
8
 72
2
 41
1.0
 42
0.0
  1

  3
Standard
100
AcDbAlignedDimension
 13
-429.11739286794091
 23
231.21502682405571
 33
0.0
 14
-409.19349890610602
 24
229.47191196910291
 34
0.0
1001
ACAD
1000
DSTYLE
1002
{
1070
144
1040
1
1002
}
  0
DIMENSION
  5
B9
100
AcDbEntity
  8
0
 62
9
420
12632256
370
-1
  6
BYLAYER
100
AcDbDimension
 10
-397.96076630041858
 20
243.12550069834248
 30
0.0
 11
-387.83540230184923
 21
244.12180832978791
 31
0.0
 70
1
 71
8
 72
2
 41
1.0
 42
0.0
  1

  3
Standard
100
AcDbAlignedDimension
 13
-399.2315519251884
 23
228.60035454162619
 33
0.0
 14
-379.30765796335339
 24
226.85723968667301
 34
0.0
1001
ACAD
1000
DSTYLE
1002
{
1070
144
1040
1
1002
}
  0
DIMENSION
  5
BA
100
AcDbEntity
  8
0
 62
9
420
12632256
370
-1
  6
BYLAYER
100
AcDbDimension
 10
-407.92271328133603
 20
243.99705812581911
 30
0.0
 11
-402.77832277322534
 21
245.42914447100276
 31
0.0
 70
1
 71
8
 72
2
 41
1.0
 42
0.0
  1

  3
Standard
100
AcDbAlignedDimension
 13
-409.19349890610602
 23
229.47191196910291
 33
0.0
 14
-399.23155192518851
 24
228.60035454162619
 34
0.0
1001
ACAD
1000
DSTYLE
1002
{
1070
144
1040
1
1002
}
  0
DIMENSION
  5
BB
100
AcDbEntity
  8
0
 62
9
420
12632256
370
-1
  6
BYLAYER
100
AcDbDimension
 10
-450.0
 20
190.0
 30
0.0
 11
-439.73300791946576
 21
191.875
 31
0.0
 70
0
 71
8
 72
2
 41
1.0
 42
0.0
  1

  3
Standard
100
AcDbAlignedDimension
 13
-429.46601583893153
 23
227.2302480316888
 33
0.0
 14
-450.0
 24
200.0
 34
0.0
 50
0.0
100
AcDbRotatedDimension
1001
ACAD
1000
DSTYLE
1002
{
1070
144
1040
1
1002
}
  0
DIMENSION
  5
BC
100
AcDbEntity
  8
0
 62
9
420
12632256
370
-1
  6
BYLAYER
100
AcDbDimension
 10
-379.65628093434418
 20
180.0
 30
0.0
 11
-414.82814046717209
 21
181.875
 31
0.0
 70
0
 71
8
 72
2
 41
1.0
 42
0.0
  1

  3
Standard
100
AcDbAlignedDimension
 13
-450.0
 23
200.0
 33
0.0
 14
-379.65628093434418
 24
222.87246089430619
 34
0.0
 50
0.0
100
AcDbRotatedDimension
1001
ACAD
1000
DSTYLE
1002
{
1070
144
1040
1
1002
}
  0
DIMENSION
  5
BD
100
AcDbEntity
  8
0
 62
9
420
12632256
370
-1
  6
BYLAYER
100
AcDbDimension
 10
-390.0
 20
200.0
 30
0.0
 11
-391.875
 21
211.43623044715309
 31
0.0
 70
0
 71
8
 72
2
 41
1.0
 42
0.0
  1

  3
Standard
100
AcDbAlignedDimension
 13
-379.65628093434418
 23
222.87246089430619
 33
0.0
 14
-390.0
 24
200.0
 34
0.0
 50
90.0
100
AcDbRotatedDimension
1001
ACAD
1000
DSTYLE
1002
{
1070
144
1040
1
1002
}
  0
DIMENSION
  5
BE
100
AcDbEntity
  8
0
 62
9
420
12632256
370
-1
  6
BYLAYER
100
AcDbDimension
 10
-300.0
 20
165.0
 30
0.0
 11
-320.0
 21
166.875
 31
0.0
 70
0
 71
8
 72
2
 41
1.0
 42
0.0
  1

  3
Standard
100
AcDbAlignedDimension
 13
-340.0
 23
210.0
 33
0.0
 14
-300.0
 24
200.0
 34
0.0
 50
0.0
100
AcDbRotatedDimension
1001
ACAD
1000
DSTYLE
1002
{
1070
144
1040
1
1002
}
  0
DIMENSION
  5
BF
100
AcDbEntity
  8
0
 62
9
420
12632256
370
-1
  6
BYLAYER
100
AcDbDimension
 10
-290.0
 20
240.0
 30
0.0
 11
-291.875
 21
220.0
 31
0.0
 70
0
 71
8
 72
2
 41
1.0
 42
0.0
  1

  3
Standard
100
AcDbAlignedDimension
 13
-300.0
 23
200.0
 33
0.0
 14
-310.0
 24
240.0
 34
0.0
 50
90.0
100
AcDbRotatedDimension
1001
ACAD
1000
DSTYLE
1002
{
1070
144
1040
1
1002
}
  0
DIMENSION
  5
C0
100
AcDbEntity
  8
0
 62
9
420
12632256
370
-1
  6
BYLAYER
100
AcDbDimension
 10
-410.0
 20
185.0
 30
0.0
 11
-430.0
 21
186.875
 31
0.0
 70
0
 71
8
 72
2
 41
1.0
 42
0.0
  1

  3
Standard
100
AcDbAlignedDimension
 13
-450.0
 23
200.0
 33
0.0
 14
-410.0
 24
210.0
 34
0.0
 50
0.0
100
AcDbRotatedDimension
1001
ACAD
1000
DSTYLE
1002
{
1070
144
1040
1
1002
}
  0
DIMENSION
  5
C1
100
AcDbEntity
  8
0
 62
9
420
12632256
370
-1
  6
BYLAYER
100
AcDbDimension
 10
-447.78175718519242
 20
256.3549551357608
 30
0.0
 11
-408.61981855583997
 21
254.81089165938837
 31
0.0
 70
1
 71
8
 72
2
 41
1.0
 42
0.0
  1

  3
Standard
100
AcDbAlignedDimension
 13
-449.99704322340119
 23
231.03411985345701
 33
0.0
 14
-372.0
 24
224.21026278286811
 34
0.0
1001
ACAD
1000
DSTYLE
1002
{
1070
144
1040
1
1002
}
  0
DIMENSION
  5
C2
100
AcDbEntity
  8
0
 62
9
420
12632256
370
-1
  6
BYLAYER
100
AcDbDimension
 10
-447.07918736580331
 20
264.38536491772027
 30
0.0
 11
-405.91724873645092
 21
262.66632411429595
 31
0.0
 70
1
 71
8
 72
2
 41
1.0
 42
0.0
  1

  3
Standard
100
AcDbAlignedDimension
 13
-449.99704322340119
 23
231.03411985345701
 33
0.0
 14
-368.00000000000011
 24
223.86030812876439
 34
0.0
1001
ACAD
1000
DSTYLE
1002
{
1070
144
1040
1
1002
}
  0
DIMENSION
  5
C3
100
AcDbEntity
  8
0
 62
9
420
12632256
370
-1
  6
BYLAYER
100
AcDbDimension
 10
-450.0
 20
175.0
 30
0.0
 11
-410.0
 21
176.875
 31
0.0
 70
0
 71
8
 72
2
 41
1.0
 42
0.0
  1

  3
Standard
100
AcDbAlignedDimension
 13
-370.0
 23
214.0
 33
0.0
 14
-450.0
 24
200.0
 34
0.0
 50
0.0
100
AcDbRotatedDimension
1001
ACAD
1000
DSTYLE
1002
{
1070
144
1040
1
1002
}
  0
DIMENSION
  5
C4
100
AcDbEntity
  8
0
 62
9
420
12632256
370
-1
  6
BYLAYER
100
AcDbDimension
 10
-480.0
 20
200.0
 30
0.0
 11
-481.875
 21
215.51705992672851
 31
0.0
 70
0
 71
8
 72
2
 41
1.0
 42
0.0
  1

  3
Standard
100
AcDbAlignedDimension
 13
-449.99704322340119
 23
231.03411985345701
 33
0.0
 14
-450.0
 24
200.0
 34
0.0
 50
90.0
100
AcDbRotatedDimension
1001
ACAD
1000
DSTYLE
1002
{
1070
144
1040
1
1002
}
  0
LINE
  5
C5
100
AcDbEntity
100
AcDbLine
  8
0
 62
256
370
-1
  6
BYLAYER
 10
-379.48196944884887
 20
224.8648502904897
 30
0.0
 11
-379.48196944884887
 21
224.8648502904897
 31
0.0
  0
LINE
  5
C6
100
AcDbEntity
100
AcDbLine
  8
0
 62
256
370
-1
  6
BYLAYER
 10
-449.99704322340119
 20
231.03411985345701
 30
0.0
 11
-368.00000000000011
 21
223.86030812876439
 31
0.0
  0
DIMENSION
  5
C7
100
AcDbEntity
  8
0
 62
9
420
12632256
370
-1
  6
BYLAYER
100
AcDbDimension
 10
-360.0
 20
214.0
 30
0.0
 11
-361.875
 21
230.21584101137185
 31
0.0
 70
0
 71
8
 72
2
 41
1.0
 42
0.0
  1

  3
Standard
100
AcDbAlignedDimension
 13
-370.0
 23
224.03528545581631
 33
0.0
 14
-368.0
 24
214.0
 34
0.0
 50
90.0
100
AcDbRotatedDimension
1001
ACAD
1000
DSTYLE
1002
{
1070
144
1040
1
1002
}
  0
DIMENSION
  5
C8
100
AcDbEntity
  8
0
 62
9
420
12632256
370
-1
  6
BYLAYER
100
AcDbDimension
 10
-470.0
 20
200.0
 30
0.0
 11
-471.875
 21
213.6151240158444
 31
0.0
 70
0
 71
8
 72
2
 41
1.0
 42
0.0
  1

  3
Standard
100
AcDbAlignedDimension
 13
-429.46601583893153
 23
227.2302480316888
 33
0.0
 14
-450.0
 24
200.0
 34
0.0
 50
90.0
100
AcDbRotatedDimension
1001
ACAD
1000
DSTYLE
1002
{
1070
144
1040
1
1002
}
  0
DIMENSION
  5
C9
100
AcDbEntity
  8
0
 62
9
420
12632256
370
-1
  6
BYLAYER
100
AcDbDimension
 10
-449.12419109680036
 20
241.01086531308093
 30
0.0
 11
-438.60810464416596
 21
241.97298915921064
 31
0.0
 70
1
 71
8
 72
2
 41
1.0
 42
0.0
  1

  3
Standard
100
AcDbAlignedDimension
 13
-449.99704322340119
 23
231.03411985345701
 33
0.0
 14
-429.2917043534361
 24
229.2226374278724
 34
0.0
1001
ACAD
1000
DSTYLE
1002
{
1070
144
1040
1
1002
}
  0
LINE
  5
CA
100
AcDbEntity
100
AcDbLine
  8
0
 62
256
370
-1
  6
BYLAYER
 10
-429.46601583893153
 20
227.2302480316888
 30
0.0
 11
-429.11739286794091
 21
231.21502682405571
 31
0.0
  0
LINE
  5
CB
100
AcDbEntity
100
AcDbLine
  8
0
 62
256
370
-1
  6
BYLAYER
 10
-323.23548021063135
 20
291.66519543166004
 30
0.0
 11
-319.25070141826433
 21
291.31657246066942
 31
0.0
  0
LINE
  5
CC
100
AcDbEntity
100
AcDbLine
  8
0
 62
256
370
-1
  6
BYLAYER
 10
-319.25070141826433
 20
291.31657246066942
 30
0.0
 11
-321.86537370069425
 21
261.43073151791708
 31
0.0
  0
LINE
  5
CD
100
AcDbEntity
100
AcDbLine
  8
0
 62
256
370
-1
  6
BYLAYER
 10
-321.86537370069425
 20
261.43073151791708
 30
0.0
 11
-325.85015249306116
 21
261.7793544889077
 31
0.0
  0
LINE
  5
CE
100
AcDbEntity
100
AcDbLine
  8
0
 62
256
370
-1
  6
BYLAYER
 10
-325.85015249306116
 20
261.7793544889077
 30
0.0
 11
-323.23548021063135
 21
291.66519543166004
 31
0.0
  0
INSERT
  5
CF
100
AcDbEntity
100
AcDbBlockReference
  8
0
 62
256
370
-1
  6
BYLAYER
  2
block 1
 10
-309.49997595949469
 20
311.41477790799968
 30
0.0
  0
DIMENSION
  5
D0
100
AcDbEntity
  8
0
 62
9
420
12632256
370
-1
  6
BYLAYER
100
AcDbDimension
 10
-269.21791513985153
 20
286.93927085669236
 30
0.0
 11
-272.39311633998852
 21
272.15976740296804
 31
0.0
 70
1
 71
8
 72
2
 41
1.0
 42
0.0
  1

  3
Standard
100
AcDbAlignedDimension
 13
-319.25070141826427
 23
291.31657246066936
 33
0.0
 14
-321.86537370069431
 24
261.43073151791708
 34
0.0
1001
ACAD
1000
DSTYLE
1002
{
1070
144
1040
1
1002
}
  0
DIMENSION
  5
D1
100
AcDbEntity
  8
0
 62
9
420
12632256
370
-1
  6
BYLAYER
100
AcDbDimension
 10
-265.73168542994523
 20
326.78705878036283
 30
0.0
 11
-269.34266534382039
 21
307.02658183617967
 31
0.0
 70
1
 71
8
 72
2
 41
1.0
 42
0.0
  1

  3
Standard
100
AcDbAlignedDimension
 13
-315.76447170835797
 23
331.16436038433932
 33
0.0
 14
-319.25070141826427
 24
291.31657246066936
 34
0.0
1001
ACAD
1000
DSTYLE
1002
{
1070
144
1040
1
1002
}
  0
DIMENSION
  5
D2
100
AcDbEntity
  8
0
 62
9
420
12632256
370
-1
  6
BYLAYER
100
AcDbDimension
 10
-230.0
 20
310.0
 30
0.0
 11
-231.875
 21
381.70738895399984
 31
0.0
 70
0
 71
8
 72
2
 41
1.0
 42
0.0
  1

  3
Standard
100
AcDbAlignedDimension
 13
-300.0
 23
450.0
 33
0.0
 14
-309.49997595949469
 24
313.41477790799962
 34
0.0
 50
90.0
100
AcDbRotatedDimension
1001
ACAD
1000
DSTYLE
1002
{
1070
144
1040
1
1002
}
  0
DIMENSION
  5
D3
100
AcDbEntity
  8
0
 62
9
420
12632256
370
-1
  6
BYLAYER
100
AcDbDimension
 10
-230.0
 20
300.0
 30
0.0
 11
-231.875
 21
311.41477790799968
 31
0.0
 70
0
 71
8
 72
2
 41
1.0
 42
0.0
  1

  3
Standard
100
AcDbAlignedDimension
 13
-309.49997595949469
 23
309.41477790799968
 33
0.0
 14
-309.49997595949469
 24
313.41477790799962
 34
0.0
 50
90.0
100
AcDbRotatedDimension
1001
ACAD
1000
DSTYLE
1002
{
1070
144
1040
1
1002
}
  0
DIMENSION
  5
D4
100
AcDbEntity
  8
0
 62
9
420
12632256
370
-1
  6
BYLAYER
100
AcDbDimension
 10
-230.0
 20
261.0
 30
0.0
 11
-231.875
 21
230.71536575895854
 31
0.0
 70
0
 71
8
 72
2
 41
1.0
 42
0.0
  1

  3
Standard
100
AcDbAlignedDimension
 13
-300.0
 23
200.0
 33
0.0
 14
-321.86537370069431
 24
261.43073151791708
 34
0.0
 50
90.0
100
AcDbRotatedDimension
1001
ACAD
1000
DSTYLE
1002
{
1070
144
1040
1
1002
}
  0
DIMENSION
  5
D5
100
AcDbEntity
  8
0
 62
9
420
12632256
370
-1
  6
BYLAYER
100
AcDbDimension
 10
-300.0
 20
300.0
 30
0.0
 11
-304.74998797974735
 21
301.875
 31
0.0
 70
0
 71
8
 72
2
 41
1.0
 42
0.0
  1

  3
Standard
100
AcDbAlignedDimension
 13
-309.49997595949469
 23
309.41477790799968
 33
0.0
 14
-300.0
 24
300.0
 34
0.0
 50
0.0
100
AcDbRotatedDimension
1001
ACAD
1000
DSTYLE
1002
{
1070
144
1040
1
1002
}
  0
LINE
  5
D6
100
AcDbEntity
100
AcDbLine
  8
0
 62
256
370
-1
  6
BYLAYER
 10
102.0
 20
260.00000000000011
 30
0.0
 11
102.0
 21
270.00000000000011
 31
0.0
  0
LINE
  5
D7
100
AcDbEntity
100
AcDbLine
  8
0
 62
256
370
-1
  6
BYLAYER
 10
102.0
 20
270.00000000000011
 30
0.0
 11
100.0
 21
270.00000000000011
 31
0.0
  0
LINE
  5
D8
100
AcDbEntity
100
AcDbLine
  8
0
 62
256
370
-1
  6
BYLAYER
 10
-100.0
 20
230.00000000000009
 30
0.0
 11
-112.0
 21
230.00000000000009
 31
0.0
  0
LINE
  5
D9
100
AcDbEntity
100
AcDbLine
  8
0
 62
256
370
-1
  6
BYLAYER
 10
-112.0
 20
230.00000000000009
 30
0.0
 11
-112.0
 21
210.00000000000017
 31
0.0
  0
LINE
  5
DA
100
AcDbEntity
100
AcDbLine
  8
0
 62
256
370
-1
  6
BYLAYER
 10
-112.0
 20
210.00000000000017
 30
0.0
 11
-102.0
 21
210.00000000000009
 31
0.0
  0
LINE
  5
DB
100
AcDbEntity
100
AcDbLine
  8
0
 62
256
370
-1
  6
BYLAYER
 10
-102.0
 20
210.00000000000009
 30
0.0
 11
-102.0
 21
220.00000000000009
 31
0.0
  0
LINE
  5
DC
100
AcDbEntity
100
AcDbLine
  8
0
 62
256
370
-1
  6
BYLAYER
 10
-102.0
 20
220.00000000000009
 30
0.0
 11
-100.0
 21
220.00000000000009
 31
0.0
  0
LINE
  5
DD
100
AcDbEntity
100
AcDbLine
  8
0
 62
256
370
-1
  6
BYLAYER
 10
-100.0
 20
220.00000000000009
 30
0.0
 11
-100.0
 21
200.00000000000009
 31
0.0
  0
LINE
  5
DE
100
AcDbEntity
100
AcDbLine
  8
0
 62
256
370
-1
  6
BYLAYER
 10
200.0
 20
450.0
 30
0.0
 11
350.0
 21
450.0
 31
0.0
  0
LINE
  5
DF
100
AcDbEntity
100
AcDbLine
  8
0
 62
256
370
-1
  6
BYLAYER
 10
350.0
 20
450.0
 30
0.0
 11
350.0
 21
200.0
 31
0.0
  0
LINE
  5
E0
100
AcDbEntity
100
AcDbLine
  8
0
 62
256
370
-1
  6
BYLAYER
 10
350.0
 20
200.0
 30
0.0
 11
200.0
 21
200.0
 31
0.0
  0
LINE
  5
E1
100
AcDbEntity
100
AcDbLine
  8
0
 62
256
370
-1
  6
BYLAYER
 10
200.0
 20
200.0
 30
0.0
 11
200.0
 21
450.0
 31
0.0
  0
LINE
  5
E2
100
AcDbEntity
100
AcDbLine
  8
0
 62
256
370
-1
  6
BYLAYER
 10
320.0
 20
304.0
 30
0.0
 11
340.0
 21
304.0
 31
0.0
  0
LINE
  5
E3
100
AcDbEntity
100
AcDbLine
  8
0
 62
256
370
-1
  6
BYLAYER
 10
340.0
 20
304.0
 30
0.0
 11
340.0
 21
300.0
 31
0.0
  0
LINE
  5
E4
100
AcDbEntity
100
AcDbLine
  8
0
 62
256
370
-1
  6
BYLAYER
 10
340.0
 20
300.0
 30
0.0
 11
320.0
 21
300.0
 31
0.0
  0
LINE
  5
E5
100
AcDbEntity
100
AcDbLine
  8
0
 62
256
370
-1
  6
BYLAYER
 10
320.0
 20
300.0
 30
0.0
 11
320.0
 21
304.0
 31
0.0
  0
LINE
  5
E6
100
AcDbEntity
100
AcDbLine
  8
0
 62
256
370
-1
  6
BYLAYER
 10
241.0
 20
200.0
 30
0.0
 11
241.0
 21
210.0
 31
0.0
  0
LINE
  5
E7
100
AcDbEntity
100
AcDbLine
  8
0
 62
256
370
-1
  6
BYLAYER
 10
241.0
 20
210.0
 30
0.0
 11
239.0
 21
210.0
 31
0.0
  0
LINE
  5
E8
100
AcDbEntity
100
AcDbLine
  8
0
 62
256
370
-1
  6
BYLAYER
 10
239.0
 20
210.0
 30
0.0
 11
239.0
 21
200.0
 31
0.0
  0
LINE
  5
E9
100
AcDbEntity
100
AcDbLine
  8
0
 62
256
370
-1
  6
BYLAYER
 10
309.0
 20
200.0
 30
0.0
 11
309.0
 21
210.0
 31
0.0
  0
LINE
  5
EA
100
AcDbEntity
100
AcDbLine
  8
0
 62
256
370
-1
  6
BYLAYER
 10
309.0
 20
210.0
 30
0.0
 11
311.0
 21
210.0
 31
0.0
  0
LINE
  5
EB
100
AcDbEntity
100
AcDbLine
  8
0
 62
256
370
-1
  6
BYLAYER
 10
311.0
 20
210.0
 30
0.0
 11
311.0
 21
200.0
 31
0.0
  0
LINE
  5
EC
100
AcDbEntity
100
AcDbLine
  8
0
 62
256
370
-1
  6
BYLAYER
 10
350.0
 20
239.0
 30
0.0
 11
340.0
 21
239.0
 31
0.0
  0
LINE
  5
ED
100
AcDbEntity
100
AcDbLine
  8
0
 62
256
370
-1
  6
BYLAYER
 10
340.0
 20
239.0
 30
0.0
 11
340.0
 21
241.0
 31
0.0
  0
LINE
  5
EE
100
AcDbEntity
100
AcDbLine
  8
0
 62
256
370
-1
  6
BYLAYER
 10
340.0
 20
241.0
 30
0.0
 11
350.0
 21
241.0
 31
0.0
  0
LINE
  5
EF
100
AcDbEntity
100
AcDbLine
  8
0
 62
256
370
-1
  6
BYLAYER
 10
239.0
 20
450.0
 30
0.0
 11
239.0
 21
440.0
 31
0.0
  0
LINE
  5
F0
100
AcDbEntity
100
AcDbLine
  8
0
 62
256
370
-1
  6
BYLAYER
 10
239.0
 20
440.0
 30
0.0
 11
241.0
 21
440.0
 31
0.0
  0
LINE
  5
F1
100
AcDbEntity
100
AcDbLine
  8
0
 62
256
370
-1
  6
BYLAYER
 10
241.0
 20
440.0
 30
0.0
 11
241.0
 21
450.0
 31
0.0
  0
LINE
  5
F2
100
AcDbEntity
100
AcDbLine
  8
0
 62
256
370
-1
  6
BYLAYER
 10
311.0
 20
450.0
 30
0.0
 11
311.0
 21
440.0
 31
0.0
  0
LINE
  5
F3
100
AcDbEntity
100
AcDbLine
  8
0
 62
256
370
-1
  6
BYLAYER
 10
311.0
 20
440.0
 30
0.0
 11
309.0
 21
440.0
 31
0.0
  0
LINE
  5
F4
100
AcDbEntity
100
AcDbLine
  8
0
 62
256
370
-1
  6
BYLAYER
 10
309.0
 20
440.0
 30
0.0
 11
309.0
 21
450.0
 31
0.0
  0
LINE
  5
F5
100
AcDbEntity
100
AcDbLine
  8
0
 62
1
420
16711680
370
-1
  6
BYLAYER
 10
340.0
 20
420.0
 30
0.0
 11
322.56885145046829
 21
220.76106038165051
 31
0.0
  0
LINE
  5
F6
100
AcDbEntity
100
AcDbLine
  8
0
 62
256
370
-1
  6
BYLAYER
 10
332.01141590572479
 20
342.26146722824296
 30
0.0
 11
335.0
 21
342.0
 31
0.0
  0
LINE
  5
F7
100
AcDbEntity
100
AcDbLine
  8
0
 62
256
370
-1
  6
BYLAYER
 10
335.0
 20
342.0
 30
0.0
 11
332.38532771757025
 21
312.11415905724766
 31
0.0
  0
LINE
  5
F8
100
AcDbEntity
100
AcDbLine
  8
0
 62
256
370
-1
  6
BYLAYER
 10
332.38532771757025
 20
312.11415905724766
 30
0.0
 11
329.39674362329504
 21
312.37562628549063
 31
0.0
  0
LINE
  5
F9
100
AcDbEntity
100
AcDbLine
  8
0
 62
256
370
-1
  6
BYLAYER
 10
329.39674362329504
 20
312.37562628549063
 30
0.0
 11
332.01141590572479
 21
342.26146722824296
 31
0.0
  0
LINE
  5
FA
100
AcDbEntity
100
AcDbLine
  8
0
 62
256
370
-1
  6
BYLAYER
 10
327.65362876834189
 20
292.45173232365568
 30
0.0
 11
330.6422128626171
 21
292.19026509541271
 31
0.0
  0
LINE
  5
FB
100
AcDbEntity
100
AcDbLine
  8
0
 62
256
370
-1
  6
BYLAYER
 10
330.6422128626171
 20
292.19026509541271
 30
0.0
 11
328.02754058018735
 21
262.30442415266037
 31
0.0
  0
LINE
  5
FC
100
AcDbEntity
100
AcDbLine
  8
0
 62
256
370
-1
  6
BYLAYER
 10
328.02754058018735
 20
262.30442415266037
 30
0.0
 11
325.03895648591214
 21
262.56589138090334
 31
0.0
  0
LINE
  5
FD
100
AcDbEntity
100
AcDbLine
  8
0
 62
256
370
-1
  6
BYLAYER
 10
325.03895648591214
 20
262.56589138090334
 30
0.0
 11
327.65362876834189
 21
292.45173232365568
 31
0.0
  0
LINE
  5
FE
100
AcDbEntity
100
AcDbLine
  8
0
 62
1
420
16711680
370
-1
  6
BYLAYER
 10
183.10159371762387
 20
232.96286436632261
 30
0.0
 11
322.56885145046829
 21
220.76106038165051
 31
0.0
  0
LINE
  5
FF
100
AcDbEntity
100
AcDbLine
  8
0
 62
256
370
-1
  6
BYLAYER
 10
248.0
 20
237.0
 30
0.0
 11
252.0
 21
237.0
 31
0.0
  0
LINE
  5
100
100
AcDbEntity
100
AcDbLine
  8
0
 62
256
370
-1
  6
BYLAYER
 10
252.0
 20
237.0
 30
0.0
 11
252.0
 21
217.0
 31
0.0
  0
LINE
  5
101
100
AcDbEntity
100
AcDbLine
  8
0
 62
256
370
-1
  6
BYLAYER
 10
252.0
 20
217.0
 30
0.0
 11
248.0
 21
217.0
 31
0.0
  0
LINE
  5
102
100
AcDbEntity
100
AcDbLine
  8
0
 62
256
370
-1
  6
BYLAYER
 10
248.0
 20
217.0
 30
0.0
 11
248.0
 21
237.0
 31
0.0
  0
LINE
  5
103
100
AcDbEntity
100
AcDbLine
  8
0
 62
256
370
-1
  6
BYLAYER
 10
210.17431148549531
 20
231.99238939618348
 30
0.0
 11
240.06015242824768
 21
229.37771711375376
 31
0.0
  0
LINE
  5
104
100
AcDbEntity
100
AcDbLine
  8
0
 62
256
370
-1
  6
BYLAYER
 10
240.06015242824768
 20
229.37771711375376
 30
0.0
 11
239.88584094275237
 21
227.38532771757025
 31
0.0
  0
LINE
  5
105
100
AcDbEntity
100
AcDbLine
  8
0
 62
256
370
-1
  6
BYLAYER
 10
239.88584094275237
 20
227.38532771757025
 30
0.0
 11
210.0
 21
230.0
 31
0.0
  0
LINE
  5
106
100
AcDbEntity
100
AcDbLine
  8
0
 62
256
370
-1
  6
BYLAYER
 10
210.0
 20
230.0
 30
0.0
 11
210.17431148549531
 21
231.99238939618348
 31
0.0
  0
LINE
  5
107
100
AcDbEntity
100
AcDbLine
  8
0
 62
256
370
-1
  6
BYLAYER
 10
259.9840463900826
 20
227.63460225880064
 30
0.0
 11
289.86988733283494
 21
225.01992997637069
 31
0.0
  0
LINE
  5
108
100
AcDbEntity
100
AcDbLine
  8
0
 62
256
370
-1
  6
BYLAYER
 10
289.86988733283494
 20
225.01992997637069
 30
0.0
 11
289.69557584733963
 21
223.02754058018735
 31
0.0
  0
LINE
  5
109
100
AcDbEntity
100
AcDbLine
  8
0
 62
256
370
-1
  6
BYLAYER
 10
289.69557584733963
 20
223.02754058018735
 30
0.0
 11
259.80973490458729
 21
225.6422128626171
 31
0.0
  0
LINE
  5
10A
100
AcDbEntity
100
AcDbLine
  8
0
 62
256
370
-1
  6
BYLAYER
 10
259.80973490458729
 20
225.6422128626171
 30
0.0
 11
259.9840463900826
 21
227.63460225880064
 31
0.0
  0
LINE
  5
10B
100
AcDbEntity
100
AcDbLine
  8
0
 62
256
370
-1
  6
BYLAYER
 10
-100.0
 20
290.0
 30
0.0
 11
-100.0
 21
300.0
 31
0.0
  0
LINE
  5
10C
100
AcDbEntity
100
AcDbLine
  8
0
 62
256
370
-1
  6
BYLAYER
 10
-100.0
 20
300.0
 30
0.0
 11
100.0
 21
300.0
 31
0.0
  0
LINE
  5
10D
100
AcDbEntity
100
AcDbLine
  8
0
 62
256
370
-1
  6
BYLAYER
 10
100.0
 20
300.0
 30
0.0
 11
99.999999999999986
 21
290.00000000000023
 31
0.0
  0
LINE
  5
10E
100
AcDbEntity
100
AcDbLine
  8
0
 62
256
370
-1
  6
BYLAYER
 10
350.0
 20
429.0
 30
0.0
 11
340.0
 21
429.0
 31
0.0
  0
LINE
  5
10F
100
AcDbEntity
100
AcDbLine
  8
0
 62
256
370
-1
  6
BYLAYER
 10
340.0
 20
429.0
 30
0.0
 11
340.0
 21
431.0
 31
0.0
  0
LINE
  5
110
100
AcDbEntity
100
AcDbLine
  8
0
 62
256
370
-1
  6
BYLAYER
 10
340.0
 20
431.0
 30
0.0
 11
350.0
 21
431.0
 31
0.0
  0
LINE
  5
111
100
AcDbEntity
100
AcDbLine
  8
0
 62
1
420
16711680
370
-1
  6
BYLAYER
 10
200.53274226715547
 20
432.2018039846721
 30
0.0
 11
183.10159371762387
 21
232.96286436632261
 31
0.0
  0
LINE
  5
112
100
AcDbEntity
100
AcDbLine
  8
0
 62
1
420
16711680
370
-1
  6
BYLAYER
 10
340.0
 20
420.0
 30
0.0
 11
200.53274226715558
 21
432.20180398467221
 31
0.0
  0
DIMENSION
  5
113
100
AcDbEntity
  8
0
 62
256
370
-1
  6
BYLAYER
100
AcDbDimension
 10
180.0
 20
200.0
 30
0.0
 11
178.125
 21
215.0
 31
0.0
 70
0
 71
8
 72
2
 41
1.0
 42
0.0
  1

  3
Standard
100
AcDbAlignedDimension
 13
209.99999999999997
 23
230.0
 33
0.0
 14
209.99999999999997
 24
200.0
 34
0.0
 50
90.0
100
AcDbRotatedDimension
1001
ACAD
1000
DSTYLE
1002
{
1070
144
1040
1
1002
}
  0
DIMENSION
  5
114
100
AcDbEntity
  8
0
 62
256
370
-1
  6
BYLAYER
100
AcDbDimension
 10
209.0
 20
220.0
 30
0.0
 11
205.0
 21
221.875
 31
0.0
 70
0
 71
8
 72
2
 41
1.0
 42
0.0
  1

  3
Standard
100
AcDbAlignedDimension
 13
209.99999999999997
 23
230.0
 33
0.0
 14
200.0
 24
220.0
 34
0.0
 50
0.0
100
AcDbRotatedDimension
1001
ACAD
1000
DSTYLE
1002
{
1070
144
1040
1
1002
}
  0
DIMENSION
  5
115
100
AcDbEntity
  8
0
 62
256
370
-1
  6
BYLAYER
100
AcDbDimension
 10
350.0
 20
350.0
 30
0.0
 11
342.5
 21
351.875
 31
0.0
 70
0
 71
8
 72
2
 41
1.0
 42
0.0
  1

  3
Standard
100
AcDbAlignedDimension
 13
335.0
 23
342.0
 33
0.0
 14
350.0
 24
350.0
 34
0.0
 50
0.0
100
AcDbRotatedDimension
1001
ACAD
1000
DSTYLE
1002
{
1070
144
1040
1
1002
}
  0
DIMENSION
  5
116
100
AcDbEntity
  8
0
 62
256
370
-1
  6
BYLAYER
100
AcDbDimension
 10
370.0
 20
450.0
 30
0.0
 11
368.125
 21
396.0
 31
0.0
 70
0
 71
8
 72
2
 41
1.0
 42
0.0
  1

  3
Standard
100
AcDbAlignedDimension
 13
335.0
 23
342.0
 33
0.0
 14
350.0
 24
450.0
 34
0.0
 50
90.0
100
AcDbRotatedDimension
1001
ACAD
1000
DSTYLE
1002
{
1070
144
1040
1
1002
}
  0
ENDSEC
  0
SECTION
  2
OBJECTS
  0
DICTIONARY
  5
C
100
AcDbDictionary
280
0
281
1
  3
ACAD_GROUP
350
D
  3
ACAD_LAYOUT
350
1A
  3
ACAD_MLINESTYLE
350
17
  3
ACAD_PLOTSETTINGS
350
19
  3
ACAD_PLOTSTYLENAME
350
E
  3
AcDbVariableDictionary
350
117
  3
QCAD_OBJECTS
350
118
  0
DICTIONARY
  5
D
100
AcDbDictionary
280
0
281
1
  0
ACDBDICTIONARYWDFLT
  5
E
100
AcDbDictionary
281
1
  3
Normal
350
F
100
AcDbDictionaryWithDefault
340
F
  0
ACDBPLACEHOLDER
  5
F
  0
DICTIONARY
  5
17
100
AcDbDictionary
280
0
281
1
  3
Standard
350
18
  0
MLINESTYLE
  5
18
100
AcDbMlineStyle
  2
STANDARD
 70
0
  3

 62
256
 51
90.0
 52
90.0
 71
2
 49
0.5
 62
256
  6
BYLAYER
 49
-0.5
 62
256
  6
BYLAYER
  0
DICTIONARY
  5
19
100
AcDbDictionary
280
0
281
1
  0
DICTIONARY
  5
1A
100
AcDbDictionary
281
1
  3
Layout1
350
1E
  3
Layout2
350
26
  3
Model
350
22
  0
LAYOUT
  5
1E
100
AcDbPlotSettings
  1

  2
none_device
  4

  6

 40
0.0
 41
0.0
 42
0.0
 43
0.0
 44
0.0
 45
0.0
 46
0.0
 47
0.0
 48
0.0
 49
0.0
140
0.0
141
0.0
142
1.0
143
1.0
 70
688
 72
0
 73
0
 74
5
  7

 75
16
147
1.0
148
0.0
149
0.0
100
AcDbLayout
  1
Layout1
 70
1
 71
1
 10
0.0
 20
0.0
 11
420.0
 21
297.0
 12
0.0
 22
0.0
 32
0.0
 14
100000000000000000000.0
 24
100000000000000000000.0
 34
100000000000000000000.0
 15
-100000000000000000000.0
 25
-100000000000000000000.0
 35
-100000000000000000000.0
146
0.0
 13
0.0
 23
0.0
 33
0.0
 16
1.0
 26
0.0
 36
0.0
 17
0.0
 27
1.0
 37
0.0
 76
0
330
1B
  0
LAYOUT
  5
22
100
AcDbPlotSettings
  1

  2
none_device
  4

  6

 40
0.0
 41
0.0
 42
0.0
 43
0.0
 44
0.0
 45
0.0
 46
0.0
 47
0.0
 48
0.0
 49
0.0
140
0.0
141
0.0
142
1.0
143
1.0
 70
1712
 72
0
 73
0
 74
0
  7

 75
0
147
1.0
148
0.0
149
0.0
100
AcDbLayout
  1
Model
 70
1
 71
0
 10
0.0
 20
0.0
 11
12.0
 21
9.0
 12
0.0
 22
0.0
 32
0.0
 14
0.0
 24
0.0
 34
0.0
 15
0.0
 25
0.0
 35
0.0
146
0.0
 13
0.0
 23
0.0
 33
0.0
 16
1.0
 26
0.0
 36
0.0
 17
0.0
 27
1.0
 37
0.0
 76
0
330
1F
  0
LAYOUT
  5
26
100
AcDbPlotSettings
  1

  2
none_device
  4

  6

 40
0.0
 41
0.0
 42
0.0
 43
0.0
 44
0.0
 45
0.0
 46
0.0
 47
0.0
 48
0.0
 49
0.0
140
0.0
141
0.0
142
1.0
143
1.0
 70
688
 72
0
 73
0
 74
5
  7

 75
16
147
1.0
148
0.0
149
0.0
100
AcDbLayout
  1
Layout2
 70
1
 71
2
 10
0.0
 20
0.0
 11
12.0
 21
9.0
 12
0.0
 22
0.0
 32
0.0
 14
0.0
 24
0.0
 34
0.0
 15
0.0
 25
0.0
 35
0.0
146
0.0
 13
0.0
 23
0.0
 33
0.0
 16
1.0
 26
0.0
 36
0.0
 17
0.0
 27
1.0
 37
0.0
 76
0
330
23
  0
DICTIONARY
  5
117
100
AcDbDictionary
281
1
  3
DIMASSOC
350
11A
  3
HIDETEXT
350
119
  0
DICTIONARYVAR
  5
119
100
DictionaryVariables
280
0
  1
2
  0
DICTIONARYVAR
  5
11A
100
DictionaryVariables
280
0
  1
1
  0
DICTIONARY
  5
118
100
AcDbDictionary
281
1
  3
Grid/DisplayGrid00
350
11B
  3
Grid/DisplayGrid01
350
11C
  3
Grid/DisplayGrid02
350
11D
  3
Grid/DisplayGrid03
350
11E
  3
Grid/GridSpacingX00
350
11F
  3
Grid/GridSpacingX01
350
120
  3
Grid/GridSpacingX02
350
121
  3
Grid/GridSpacingX03
350
122
  3
Grid/GridSpacingY00
350
123
  3
Grid/GridSpacingY01
350
124
  3
Grid/GridSpacingY02
350
125
  3
Grid/GridSpacingY03
350
126
  3
Grid/IsometricGrid00
350
127
  3
Grid/IsometricGrid01
350
128
  3
Grid/IsometricGrid02
350
129
  3
Grid/IsometricGrid03
350
12A
  3
Grid/IsometricProjection00
350
12B
  3
Grid/IsometricProjection01
350
12C
  3
Grid/IsometricProjection02
350
12D
  3
Grid/IsometricProjection03
350
12E
  3
Grid/MetaGridSpacingX00
350
12F
  3
Grid/MetaGridSpacingX01
350
130
  3
Grid/MetaGridSpacingX02
350
131
  3
Grid/MetaGridSpacingX03
350
132
  3
Grid/MetaGridSpacingY00
350
133
  3
Grid/MetaGridSpacingY01
350
134
  3
Grid/MetaGridSpacingY02
350
135
  3
Grid/MetaGridSpacingY03
350
136
  3
MultiPageSettings/Columns
350
137
  3
MultiPageSettings/GlueMarginsBottom
350
138
  3
MultiPageSettings/GlueMarginsLeft
350
139
  3
MultiPageSettings/GlueMarginsRight
350
13A
  3
MultiPageSettings/GlueMarginsTop
350
13B
  3
MultiPageSettings/PrintCropMarks
350
13C
  3
MultiPageSettings/Rows
350
13D
  3
PageSettings/OffsetX
350
13E
  3
PageSettings/OffsetY
350
13F
  3
PageSettings/PageOrientation
350
140
  3
PageSettings/PaperHeight
350
141
  3
PageSettings/PaperWidth
350
142
  3
PageSettings/Scale
350
143
  3
PageSettings/ShowPaperBorders
350
144
  3
UnitSettings/PaperUnit
350
145
  0
XRECORD
  5
11B
330
118
100
AcDbXrecord
280
1
290
1
  0
XRECORD
  5
11C
330
118
100
AcDbXrecord
280
1
290
1
  0
XRECORD
  5
11D
330
118
100
AcDbXrecord
280
1
290
1
  0
XRECORD
  5
11E
330
118
100
AcDbXrecord
280
1
290
1
  0
XRECORD
  5
11F
330
118
100
AcDbXrecord
280
1
1000
auto
  0
XRECORD
  5
120
330
118
100
AcDbXrecord
280
1
1000
auto
  0
XRECORD
  5
121
330
118
100
AcDbXrecord
280
1
1000
auto
  0
XRECORD
  5
122
330
118
100
AcDbXrecord
280
1
1000
auto
  0
XRECORD
  5
123
330
118
100
AcDbXrecord
280
1
1000
auto
  0
XRECORD
  5
124
330
118
100
AcDbXrecord
280
1
1000
auto
  0
XRECORD
  5
125
330
118
100
AcDbXrecord
280
1
1000
auto
  0
XRECORD
  5
126
330
118
100
AcDbXrecord
280
1
1000
auto
  0
XRECORD
  5
127
330
118
100
AcDbXrecord
280
1
290
0
  0
XRECORD
  5
128
330
118
100
AcDbXrecord
280
1
290
0
  0
XRECORD
  5
129
330
118
100
AcDbXrecord
280
1
290
0
  0
XRECORD
  5
12A
330
118
100
AcDbXrecord
280
1
290
0
  0
XRECORD
  5
12B
330
118
100
AcDbXrecord
280
1
 90
0
  0
XRECORD
  5
12C
330
118
100
AcDbXrecord
280
1
 90
0
  0
XRECORD
  5
12D
330
118
100
AcDbXrecord
280
1
 90
0
  0
XRECORD
  5
12E
330
118
100
AcDbXrecord
280
1
 90
0
  0
XRECORD
  5
12F
330
118
100
AcDbXrecord
280
1
1000
auto
  0
XRECORD
  5
130
330
118
100
AcDbXrecord
280
1
1000
auto
  0
XRECORD
  5
131
330
118
100
AcDbXrecord
280
1
1000
auto
  0
XRECORD
  5
132
330
118
100
AcDbXrecord
280
1
1000
auto
  0
XRECORD
  5
133
330
118
100
AcDbXrecord
280
1
1000
auto
  0
XRECORD
  5
134
330
118
100
AcDbXrecord
280
1
1000
auto
  0
XRECORD
  5
135
330
118
100
AcDbXrecord
280
1
1000
auto
  0
XRECORD
  5
136
330
118
100
AcDbXrecord
280
1
1000
auto
  0
XRECORD
  5
137
330
118
100
AcDbXrecord
280
1
 90
1
  0
XRECORD
  5
138
330
118
100
AcDbXrecord
280
1
 40
10.0
  0
XRECORD
  5
139
330
118
100
AcDbXrecord
280
1
 40
10.0
  0
XRECORD
  5
13A
330
118
100
AcDbXrecord
280
1
 40
10.0
  0
XRECORD
  5
13B
330
118
100
AcDbXrecord
280
1
 40
10.0
  0
XRECORD
  5
13C
330
118
100
AcDbXrecord
280
1
290
0
  0
XRECORD
  5
13D
330
118
100
AcDbXrecord
280
1
 90
1
  0
XRECORD
  5
13E
330
118
100
AcDbXrecord
280
1
 40
0.0
  0
XRECORD
  5
13F
330
118
100
AcDbXrecord
280
1
 40
0.0
  0
XRECORD
  5
140
330
118
100
AcDbXrecord
280
1
1000
Portrait
  0
XRECORD
  5
141
330
118
100
AcDbXrecord
280
1
 40
297.0
  0
XRECORD
  5
142
330
118
100
AcDbXrecord
280
1
 40
210.0
  0
XRECORD
  5
143
330
118
100
AcDbXrecord
280
1
1000
1:1
  0
XRECORD
  5
144
330
118
100
AcDbXrecord
280
1
290
1
  0
XRECORD
  5
145
330
118
100
AcDbXrecord
280
1
 90
4
  0
ENDSEC
  0
EOF
