999
dxflib 3.3.4.0
  0
SECTION
  2
HEADER
  9
$ACADVER
  1
AC1015
  9
$HANDSEED
  5
FFFF
  9
$ANGBASE
 50
0.0
  9
$ATTMODE
 70
1
  9
$AUNITS
 70
0
  9
$AUPREC
 70
0
  9
$CELTSCALE
 40
1.0
  9
$CHAMFERA
 40
0.0
  9
$CHAMFERB
 40
0.0
  9
$CHAMFERC
 40
0.0
  9
$CHAMFERD
 40
0.0
  9
$CMLJUST
 70
0
  9
$CMLSCALE
 40
1.0
  9
$DIMADEC
 70
0
  9
$DIMALTD
 70
2
  9
$DIMALTF
 40
25.399999999999999
  9
$DIMALTRND
 40
0.0
  9
$DIMALTTD
 70
2
  9
$DIMALTTZ
 70
0
  9
$DIMALTU
 70
2
  9
$DIMALTZ
 70
0
  9
$DIMAPOST
  1

  9
$DIMASZ
 40
2.5
  9
$DIMATFIT
 70
3
  9
$DIMAUNIT
 70
0
  9
$DIMAZIN
 70
2
  9
$DIMCEN
 40
0.09
  9
$DIMDEC
 70
4
  9
$DIMDLE
 40
0.0
  9
$DIMDLI
 40
0.38
  9
$DIMDSEP
 70
46
  9
$DIMEXE
 40
1.25
  9
$DIMEXO
 40
0.625
  9
$DIMFRAC
 70
0
  9
$DIMGAP
 40
0.625
  9
$DIMJUST
 70
0
  9
$DIMLFAC
 40
1.0
  9
$DIMLUNIT
 70
2
  9
$DIMLWD
 70
-2
  9
$DIMLWE
 70
-2
  9
$DIMPOST
  1

  9
$DIMRND
 40
0.0
  9
$DIMSCALE
 40
1.0
  9
$DIMTAD
 70
0
  9
$DIMTDEC
 70
4
  9
$DIMTFAC
 40
1.0
  9
$DIMTM
 40
0.0
  9
$DIMTOLJ
 70
1
  9
$DIMTP
 40
0.0
  9
$DIMTSZ
 40
0.0
  9
$DIMTVP
 40
0.0
  9
$DIMTXT
 40
2.5
  9
$DIMTZIN
 70
0
  9
$DIMZIN
 70
8
  9
$DWGCODEPAGE
  3
ANSI_1252
  9
$ELEVATION
 40
0.0
  9
$EXTMAX
 10
-100000000000000000000.0
 20
-100000000000000000000.0
 30
-100000000000000000000.0
  9
$EXTMIN
 10
100000000000000000000.0
 20
100000000000000000000.0
 30
100000000000000000000.0
  9
$FILLETRAD
 40
0.5
  9
$INSBASE
 10
0.0
 20
0.0
 30
0.0
  9
$INSUNITS
 70
4
  9
$LIMMAX
 10
12.0
 20
9.0
  9
$LIMMIN
 10
0.0
 20
0.0
  9
$LTSCALE
 40
1.0
  9
$LUNITS
 70
2
  9
$LUPREC
 70
4
  9
$MAXACTVP
 70
2
  9
$PDMODE
 70
0
  9
$PDSIZE
 40
0.0
  9
$PELEVATION
 40
0.0
  9
$PEXTMAX
 10
-100000000000000000000.0
 20
-100000000000000000000.0
 30
-100000000000000000000.0
  9
$PEXTMIN
 10
100000000000000000000.0
 20
100000000000000000000.0
 30
100000000000000000000.0
  9
$PINSBASE
 10
0.0
 20
0.0
 30
0.0
  9
$PLIMMAX
 10
12.0
 20
9.0
  9
$PLIMMIN
 10
0.0
 20
0.0
  9
$PLINEWID
 40
0.0
  9
$PROXYGRAPHICS
 70
1
  9
$PUCSORG
 10
0.0
 20
0.0
 30
0.0
  9
$PUCSXDIR
 10
1.0
 20
0.0
 30
0.0
  9
$PUCSYDIR
 10
0.0
 20
1.0
 30
0.0
  9
$SHADEDGE
 70
3
  9
$SHADEDIF
 70
70
  9
$SKETCHINC
 40
0.1
  9
$SPLINESEGS
 70
8
  9
$SPLINETYPE
 70
6
  9
$SURFTAB1
 70
6
  9
$SURFTAB2
 70
6
  9
$SURFTYPE
 70
6
  9
$SURFU
 70
6
  9
$SURFV
 70
6
  9
$TEXTSIZE
 40
2.5
  9
$THICKNESS
 40
0.0
  9
$TRACEWID
 40
0.05
  9
$TREEDEPTH
 70
3020
  9
$UCSORG
 10
0.0
 20
0.0
 30
0.0
  9
$UCSXDIR
 10
1.0
 20
0.0
 30
0.0
  9
$UCSYDIR
 10
0.0
 20
1.0
 30
0.0
  9
$UNITMODE
 70
0
  9
$USERI1
 70
0
  9
$USERI2
 70
0
  9
$USERI3
 70
0
  9
$USERI4
 70
0
  9
$USERI5
 70
0
  9
$USERR1
 40
0.0
  9
$USERR2
 40
0.0
  9
$USERR3
 40
0.0
  9
$USERR4
 40
0.0
  9
$USERR5
 40
0.0
  0
ENDSEC
  0
SECTION
  2
TABLES
  0
TABLE
  2
VPORT
  5
8
100
AcDbSymbolTable
 70
1
  0
VPORT
  5
30
100
AcDbSymbolTableRecord
100
AcDbViewportTableRecord
  2
*Active
 70
0
 10
0.0
 20
0.0
 11
1.0
 21
1.0
 12
286.30555555555549
 22
148.5
 13
0.0
 23
0.0
 14
10.0
 24
10.0
 15
10.0
 25
10.0
 16
0.0
 26
0.0
 36
1.0
 17
0.0
 27
0.0
 37
0.0
 40
297.0
 41
1.92798353909465
 42
50.0
 43
0.0
 44
0.0
 50
0.0
 51
0.0
 71
0
 72
100
 73
1
 74
3
 75
1
 76
1
 77
0
 78
0
281
0
 65
1
110
0.0
120
0.0
130
0.0
111
1.0
121
0.0
131
0.0
112
0.0
122
1.0
132
0.0
 79
0
146
0.0
  0
ENDTAB
  0
TABLE
  2
LTYPE
  5
5
100
AcDbSymbolTable
 70
21
  0
LTYPE
  5
16
100
AcDbSymbolTableRecord
100
AcDbLinetypeTableRecord
  2
CONTINUOUS
 70
0
  3
Solid line
 72
65
 73
0
 40
0.0
  0
LTYPE
  5
31
100
AcDbSymbolTableRecord
100
AcDbLinetypeTableRecord
  2
CENTER2
 70
0
  3
Center (.5x) ___ _ ___ _ ___ _ ___ _ ___ _ ___
 72
65
 73
4
 40
28.574999999999999
 49
19.050000000000001
 74
0
 49
-3.1749999999999998
 74
0
 49
3.1749999999999998
 74
0
 49
-3.1749999999999998
 74
0
  0
LTYPE
  5
32
100
AcDbSymbolTableRecord
100
AcDbLinetypeTableRecord
  2
DIVIDEX2
 70
0
  3
Divide (2x) ________  .  .  ________  .  .  _
 72
65
 73
6
 40
63.5
 49
25.399999999999999
 74
0
 49
-12.699999999999999
 74
0
 49
0.0
 74
0
 49
-12.699999999999999
 74
0
 49
0.0
 74
0
 49
-12.699999999999999
 74
0
  0
LTYPE
  5
33
100
AcDbSymbolTableRecord
100
AcDbLinetypeTableRecord
  2
DOT2
 70
0
  3
Dot (.5x) .....................................
 72
65
 73
2
 40
3.1749999999999998
 49
0.0
 74
0
 49
-3.1749999999999998
 74
0
  0
LTYPE
  5
34
100
AcDbSymbolTableRecord
100
AcDbLinetypeTableRecord
  2
DASHDOT2
 70
0
  3
Dash dot (.5x) _._._._._._._._._._._._._._._.
 72
65
 73
4
 40
12.699999999999999
 49
6.3499999999999996
 74
0
 49
-3.1749999999999998
 74
0
 49
0.0
 74
0
 49
-3.1749999999999998
 74
0
  0
LTYPE
  5
35
100
AcDbSymbolTableRecord
100
AcDbLinetypeTableRecord
  2
DIVIDE
 70
0
  3
Divide ____ . . ____ . . ____ . . ____ . . ____
 72
65
 73
6
 40
31.75
 49
12.699999999999999
 74
0
 49
-6.3499999999999996
 74
0
 49
0.0
 74
0
 49
-6.3499999999999996
 74
0
 49
0.0
 74
0
 49
-6.3499999999999996
 74
0
  0
LTYPE
  5
36
100
AcDbSymbolTableRecord
100
AcDbLinetypeTableRecord
  2
DASHDOT
 70
0
  3
Dash dot __ . __ . __ . __ . __ . __ . __ . __
 72
65
 73
4
 40
25.399999999999999
 49
12.699999999999999
 74
0
 49
-6.3499999999999996
 74
0
 49
0.0
 74
0
 49
-6.3499999999999996
 74
0
  0
LTYPE
  5
37
100
AcDbSymbolTableRecord
100
AcDbLinetypeTableRecord
  2
BORDER
 70
0
  3
Border __ __ . __ __ . __ __ . __ __ . __ __ .
 72
65
 73
6
 40
44.450000000000003
 49
12.699999999999999
 74
0
 49
-6.3499999999999996
 74
0
 49
12.699999999999999
 74
0
 49
-6.3499999999999996
 74
0
 49
0.0
 74
0
 49
-6.3499999999999996
 74
0
  0
LTYPE
  5
38
100
AcDbSymbolTableRecord
100
AcDbLinetypeTableRecord
  2
DASHDOTX2
 70
0
  3
Dash dot (2x) ____  .  ____  .  ____  .  ___
 72
65
 73
4
 40
50.799999999999997
 49
25.399999999999999
 74
0
 49
-12.699999999999999
 74
0
 49
0.0
 74
0
 49
-12.699999999999999
 74
0
  0
LTYPE
  5
39
100
AcDbSymbolTableRecord
100
AcDbLinetypeTableRecord
  2
CENTERX2
 70
0
  3
Center (2x) ________  __  ________  __  _____
 72
65
 73
4
 40
101.59999999999999
 49
63.5
 74
0
 49
-12.699999999999999
 74
0
 49
12.699999999999999
 74
0
 49
-12.699999999999999
 74
0
  0
LTYPE
  5
3A
100
AcDbSymbolTableRecord
100
AcDbLinetypeTableRecord
  2
BORDER2
 70
0
  3
Border (.5x) __.__.__.__.__.__.__.__.__.__.__.
 72
65
 73
6
 40
22.225000000000001
 49
6.3499999999999996
 74
0
 49
-3.1749999999999998
 74
0
 49
6.3499999999999996
 74
0
 49
-3.1749999999999998
 74
0
 49
0.0
 74
0
 49
-3.1749999999999998
 74
0
  0
LTYPE
  5
3B
100
AcDbSymbolTableRecord
100
AcDbLinetypeTableRecord
  2
BORDERX2
 70
0
  3
Border (2x) ____  ____  .  ____  ____  .  ___
 72
65
 73
6
 40
88.900000000000006
 49
25.399999999999999
 74
0
 49
-12.699999999999999
 74
0
 49
25.399999999999999
 74
0
 49
-12.699999999999999
 74
0
 49
0.0
 74
0
 49
-12.699999999999999
 74
0
  0
LTYPE
  5
14
100
AcDbSymbolTableRecord
100
AcDbLinetypeTableRecord
  2
BYBLOCK
 70
0
  3

 72
65
 73
0
 40
0.0
  0
LTYPE
  5
15
100
AcDbSymbolTableRecord
100
AcDbLinetypeTableRecord
  2
BYLAYER
 70
0
  3

 72
65
 73
0
 40
0.0
  0
LTYPE
  5
3C
100
AcDbSymbolTableRecord
100
AcDbLinetypeTableRecord
  2
DASHED2
 70
0
  3
Dashed (.5x) _ _ _ _ _ _ _ _ _ _ _ _ _ _ _ _ _
 72
65
 73
2
 40
9.5250000000000004
 49
6.3499999999999996
 74
0
 49
-3.1749999999999998
 74
0
  0
LTYPE
  5
3D
100
AcDbSymbolTableRecord
100
AcDbLinetypeTableRecord
  2
CENTER
 70
0
  3
Center ____ _ ____ _ ____ _ ____ _ ____ _ ____
 72
65
 73
4
 40
50.799999999999997
 49
31.75
 74
0
 49
-6.3499999999999996
 74
0
 49
6.3499999999999996
 74
0
 49
-6.3499999999999996
 74
0
  0
LTYPE
  5
3E
100
AcDbSymbolTableRecord
100
AcDbLinetypeTableRecord
  2
DIVIDE2
 70
0
  3
Divide (.5x) __..__..__..__..__..__..__..__.._
 72
65
 73
6
 40
15.875
 49
6.3499999999999996
 74
0
 49
-3.1749999999999998
 74
0
 49
0.0
 74
0
 49
-3.1749999999999998
 74
0
 49
0.0
 74
0
 49
-3.1749999999999998
 74
0
  0
LTYPE
  5
3F
100
AcDbSymbolTableRecord
100
AcDbLinetypeTableRecord
  2
DASHED
 70
0
  3
Dashed __ __ __ __ __ __ __ __ __ __ __ __ __ _
 72
65
 73
2
 40
19.050000000000001
 49
12.699999999999999
 74
0
 49
-6.3499999999999996
 74
0
  0
LTYPE
  5
40
100
AcDbSymbolTableRecord
100
AcDbLinetypeTableRecord
  2
DOTX2
 70
0
  3
Dot (2x) .  .  .  .  .  .  .  .  .  .  .  .  .
 72
65
 73
2
 40
12.699999999999999
 49
0.0
 74
0
 49
-12.699999999999999
 74
0
  0
LTYPE
  5
41
100
AcDbSymbolTableRecord
100
AcDbLinetypeTableRecord
  2
DASHEDX2
 70
0
  3
Dashed (2x) ____  ____  ____  ____  ____  ___
 72
65
 73
2
 40
38.100000000000001
 49
25.399999999999999
 74
0
 49
-12.699999999999999
 74
0
  0
LTYPE
  5
42
100
AcDbSymbolTableRecord
100
AcDbLinetypeTableRecord
  2
DOT
 70
0
  3
Dot . . . . . . . . . . . . . . . . . . . . . .
 72
65
 73
2
 40
6.3499999999999996
 49
0.0
 74
0
 49
-6.3499999999999996
 74
0
  0
ENDTAB
  0
TABLE
  2
LAYER
  5
2
100
AcDbSymbolTable
 70
2
  0
LAYER
  5
43
100
AcDbSymbolTableRecord
100
AcDbLayerTableRecord
  2
Defpoints
 70
0
 62
7
420
16777215
  6
CONTINUOUS
290
0
370
-3
390
F
  0
LAYER
  5
10
100
AcDbSymbolTableRecord
100
AcDbLayerTableRecord
  2
0
 70
0
 62
7
420
16777215
  6
CONTINUOUS
370
25
390
F
  0
ENDTAB
  0
TABLE
  2
STYLE
  5
3
100
AcDbSymbolTable
 70
1
  0
STYLE
  5
44
100
AcDbSymbolTableRecord
100
AcDbTextStyleTableRecord
  2
Standard
 70
0
 40
0.0
 41
1.0
 50
0.0
 71
0
 42
2.5
  3

  4

1001
ACAD
1000
txt
1071
0
  0
ENDTAB
  0
TABLE
  2
VIEW
  5
6
100
AcDbSymbolTable
 70
0
  0
ENDTAB
  0
TABLE
  2
UCS
  5
7
100
AcDbSymbolTable
 70
0
  0
ENDTAB
  0
TABLE
  2
APPID
  5
9
100
AcDbSymbolTable
 70
1
  0
APPID
  5
12
100
AcDbSymbolTableRecord
100
AcDbRegAppTableRecord
  2
ACAD
 70
0
  0
APPID
  5
45
100
AcDbSymbolTableRecord
100
AcDbRegAppTableRecord
  2
QCAD
 70
0
  0
ENDTAB
  0
TABLE
  2
DIMSTYLE
  5
A
100
AcDbSymbolTable
 70
1
100
AcDbDimStyleTable
 71
0
  0
DIMSTYLE
105
27
100
AcDbSymbolTableRecord
100
AcDbDimStyleTableRecord
  2
Standard
 41
2.5
 42
0.625
 43
3.75
 44
1.25
 70
0
 73
0
 74
0
 77
1
 78
8
140
2.5
141
2.5
143
0.03937007874016
147
0.625
171
3
172
1
271
2
272
2
274
3
278
44
283
0
284
8
340
44
  0
ENDTAB
  0
TABLE
  2
BLOCK_RECORD
  5
1
100
AcDbSymbolTable
 70
1
  0
BLOCK_RECORD
  5
1F
100
AcDbSymbolTableRecord
100
AcDbBlockTableRecord
  2
*Model_Space
340
22
  0
BLOCK_RECORD
  5
1B
100
AcDbSymbolTableRecord
100
AcDbBlockTableRecord
  2
*Paper_Space
340
1E
  0
BLOCK_RECORD
  5
23
100
AcDbSymbolTableRecord
100
AcDbBlockTableRecord
  2
*Paper_Space0
340
26
  0
BLOCK_RECORD
  5
46
100
AcDbSymbolTableRecord
100
AcDbBlockTableRecord
  2
block 1
340
0
  0
BLOCK_RECORD
  5
47
100
AcDbSymbolTableRecord
100
AcDbBlockTableRecord
  2
\U+30d6\U+30ed\U+30c3\U+30af\U+ff11
340
0
  0
ENDTAB
  0
ENDSEC
  0
SECTION
  2
BLOCKS
  0
BLOCK
  5
20
100
AcDbEntity
  8
0
100
AcDbBlockBegin
  2
*Model_Space
 70
0
 10
0.0
 20
0.0
 30
0.0
  3
*Model_Space
  1

  0
ENDBLK
  5
21
100
AcDbEntity
  8
0
100
AcDbBlockEnd
  0
BLOCK
  5
1C
100
AcDbEntity
 67
1
  8
0
100
AcDbBlockBegin
  2
*Paper_Space
 70
0
 10
0.0
 20
0.0
 30
0.0
  3
*Paper_Space
  1

  0
ENDBLK
  5
1D
100
AcDbEntity
 67
1
  8
0
100
AcDbBlockEnd
  0
BLOCK
  5
24
100
AcDbEntity
  8
0
100
AcDbBlockBegin
  2
*Paper_Space0
 70
0
 10
0.0
 20
0.0
 30
0.0
  3
*Paper_Space0
  1

  0
ENDBLK
  5
25
100
AcDbEntity
  8
0
100
AcDbBlockEnd
  0
BLOCK
  5
48
100
AcDbEntity
  8
0
100
AcDbBlockBegin
  2
block 1
 70
0
 10
0.0
 20
0.0
 30
0.0
  3
block 1
  1

  0
LINE
  5
49
100
AcDbEntity
100
AcDbLine
  8
0
 62
256
370
-1
  6
BYLAYER
 10
-19.999999999999886
 20
-2.0
 30
0.0
 11
-20.0
 21
1.9999999999998863
 31
0.0
  0
LINE
  5
4A
100
AcDbEntity
100
AcDbLine
  8
0
 62
256
370
-1
  6
BYLAYER
 10
0.0
 20
-2.0
 30
0.0
 11
-19.999999999999886
 21
-2.0
 31
0.0
  0
LINE
  5
4B
100
AcDbEntity
100
AcDbLine
  8
0
 62
256
370
-1
  6
BYLAYER
 10
0.0
 20
2.0
 30
0.0
 11
0.0
 21
-2.0
 31
0.0
  0
LINE
  5
4C
100
AcDbEntity
100
AcDbLine
  8
0
 62
256
370
-1
  6
BYLAYER
 10
-20.0
 20
1.9999999999998863
 30
0.0
 11
0.0
 21
2.0
 31
0.0
  0
ENDBLK
  5
4D
100
AcDbEntity
  8
0
100
AcDbBlockEnd
  0
BLOCK
  5
4E
100
AcDbEntity
  8
0
100
AcDbBlockBegin
  2
\U+30d6\U+30ed\U+30c3\U+30af\U+ff11
 70
0
 10
0.0
 20
0.0
 30
0.0
  3
\U+30d6\U+30ed\U+30c3\U+30af\U+ff11
  1

  0
LINE
  5
4F
100
AcDbEntity
100
AcDbLine
  8
0
 62
256
370
-1
  6
BYLAYER
 10
1.9923893961835688
 20
-0.1743114854953092
 30
0.0
 11
0.2492745412302497
 21
-20.098205447330201
 31
0.0
  0
LINE
  5
50
100
AcDbEntity
100
AcDbLine
  8
0
 62
256
370
-1
  6
BYLAYER
 10
-1.992389396183512
 20
0.1743114854953092
 30
0.0
 11
1.9923893961835688
 21
-0.1743114854953092
 31
0.0
  0
LINE
  5
51
100
AcDbEntity
100
AcDbLine
  8
0
 62
256
370
-1
  6
BYLAYER
 10
-3.7355042511366605
 20
-19.749582476339583
 30
0.0
 11
-1.992389396183512
 21
0.1743114854953092
 31
0.0
  0
LINE
  5
52
100
AcDbEntity
100
AcDbLine
  8
0
 62
256
370
-1
  6
BYLAYER
 10
0.2492745412302497
 20
-20.098205447330201
 30
0.0
 11
-3.7355042511366605
 21
-19.749582476339583
 31
0.0
  0
ENDBLK
  5
53
100
AcDbEntity
  8
0
100
AcDbBlockEnd
  0
ENDSEC
  0
SECTION
  2
ENTITIES
  0
LINE
  5
54
100
AcDbEntity
100
AcDbLine
  8
0
 62
256
370
-1
  6
BYLAYER
 10
-112.0
 20
360.0
 30
0.0
 11
112.0
 21
360.0
 31
0.0
  0
LINE
  5
55
100
AcDbEntity
100
AcDbLine
  8
0
 62
256
370
-1
  6
BYLAYER
 10
112.0
 20
360.0
 30
0.0
 11
111.9999999999999
 21
339.99999999999977
 31
0.0
  0
LINE
  5
56
100
AcDbEntity
100
AcDbLine
  8
0
 62
256
370
-1
  6
BYLAYER
 10
-112.0
 20
360.0
 30
0.0
 11
-112.0
 21
340.0
 31
0.0
  0
LINE
  5
57
100
AcDbEntity
100
AcDbLine
  8
0
 62
256
370
-1
  6
BYLAYER
 10
99.999999999999886
 20
339.99999999999989
 30
0.0
 11
100.0
 21
350.0
 31
0.0
  0
LINE
  5
58
100
AcDbEntity
100
AcDbLine
  8
0
 62
256
370
-1
  6
BYLAYER
 10
102.0
 20
339.99999999999989
 30
0.0
 11
101.9999999999999
 21
349.99999999999989
 31
0.0
  0
LINE
  5
59
100
AcDbEntity
100
AcDbLine
  8
0
 62
256
370
-1
  6
BYLAYER
 10
101.9999999999999
 20
349.99999999999989
 30
0.0
 11
100.0
 21
350.0
 31
0.0
  0
LINE
  5
5A
100
AcDbEntity
100
AcDbLine
  8
0
 62
256
370
-1
  6
BYLAYER
 10
-102.0
 20
340.00000000000011
 30
0.0
 11
-102.0000000000001
 21
349.99999999999989
 31
0.0
  0
LINE
  5
5B
100
AcDbEntity
100
AcDbLine
  8
0
 62
256
370
-1
  6
BYLAYER
 10
-100.0
 20
340.0
 30
0.0
 11
-100.0
 21
349.99999999999989
 31
0.0
  0
LINE
  5
5C
100
AcDbEntity
100
AcDbLine
  8
0
 62
256
370
-1
  6
BYLAYER
 10
-100.0
 20
349.99999999999989
 30
0.0
 11
-102.0000000000001
 21
349.99999999999989
 31
0.0
  0
LINE
  5
5D
100
AcDbEntity
100
AcDbLine
  8
0
 62
256
370
-1
  6
BYLAYER
 10
-102.0
 20
340.00000000000011
 30
0.0
 11
-112.0
 21
340.0
 31
0.0
  0
LINE
  5
5E
100
AcDbEntity
100
AcDbLine
  8
0
 62
256
370
-1
  6
BYLAYER
 10
111.9999999999999
 20
339.99999999999977
 30
0.0
 11
102.0
 21
339.99999999999989
 31
0.0
  0
LINE
  5
5F
100
AcDbEntity
100
AcDbLine
  8
0
 62
256
370
-1
  6
BYLAYER
 10
99.999999999999886
 20
339.99999999999989
 30
0.0
 11
-100.0
 21
340.0
 31
0.0
  0
LINE
  5
60
100
AcDbEntity
100
AcDbLine
  8
0
 62
256
370
-1
  6
BYLAYER
 10
-107.0
 20
290.0
 30
0.0
 11
-107.0
 21
280.00000000000034
 31
0.0
  0
LINE
  5
61
100
AcDbEntity
100
AcDbLine
  8
0
 62
256
370
-1
  6
BYLAYER
 10
-107.0
 20
280.00000000000034
 30
0.0
 11
-90.0
 21
280.0
 31
0.0
  0
LINE
  5
62
100
AcDbEntity
100
AcDbLine
  8
0
 62
256
370
-1
  6
BYLAYER
 10
-100.0
 20
260.00000000000006
 30
0.0
 11
-100.0
 21
240.0
 31
0.0
  0
LINE
  5
63
100
AcDbEntity
100
AcDbLine
  8
0
 62
256
370
-1
  6
BYLAYER
 10
100.0
 20
200.0
 30
0.0
 11
100.0
 21
210.00000000000014
 31
0.0
  0
LINE
  5
64
100
AcDbEntity
100
AcDbLine
  8
0
 62
256
370
-1
  6
BYLAYER
 10
90.0
 20
230.0
 30
0.0
 11
107.0
 21
230.0
 31
0.0
  0
LINE
  5
65
100
AcDbEntity
100
AcDbLine
  8
0
 62
256
370
-1
  6
BYLAYER
 10
107.0
 20
230.0
 30
0.0
 11
107.0
 21
240.0
 31
0.0
  0
LINE
  5
66
100
AcDbEntity
100
AcDbLine
  8
0
 62
256
370
-1
  6
BYLAYER
 10
107.0
 20
240.00000000000003
 30
0.0
 11
100.0
 21
240.00000000000009
 31
0.0
  0
LINE
  5
67
100
AcDbEntity
100
AcDbLine
  8
0
 62
256
370
-1
  6
BYLAYER
 10
100.0
 20
240.00000000000009
 30
0.0
 11
100.0
 21
270.00000000000011
 31
0.0
  0
LINE
  5
68
100
AcDbEntity
100
AcDbLine
  8
0
 62
256
370
-1
  6
BYLAYER
 10
102.0
 20
260.00000000000011
 30
0.0
 11
112.0
 21
260.00000000000023
 31
0.0
  0
LINE
  5
69
100
AcDbEntity
100
AcDbLine
  8
0
 62
256
370
-1
  6
BYLAYER
 10
112.0
 20
260.00000000000023
 30
0.0
 11
112.0
 21
280.00000000000011
 31
0.0
  0
LINE
  5
6A
100
AcDbEntity
100
AcDbLine
  8
0
 62
256
370
-1
  6
BYLAYER
 10
112.0
 20
280.00000000000011
 30
0.0
 11
95.000000000000028
 21
279.99999999999989
 31
0.0
  0
LINE
  5
6B
100
AcDbEntity
100
AcDbLine
  8
0
 62
256
370
-1
  6
BYLAYER
 10
100.0
 20
200.0
 30
0.0
 11
-100.0
 21
200.00000000000009
 31
0.0
  0
LINE
  5
6C
100
AcDbEntity
100
AcDbLine
  8
0
 62
256
370
-1
  6
BYLAYER
 10
-100.0
 20
290.00000000000011
 30
0.0
 11
-107.0
 21
290.0
 31
0.0
  0
LINE
  5
6D
100
AcDbEntity
100
AcDbLine
  8
0
 62
256
370
-1
  6
BYLAYER
 10
102.0
 20
340.00000000000011
 30
0.0
 11
112.0
 21
340.00000000000011
 31
0.0
  0
LINE
  5
6E
100
AcDbEntity
100
AcDbLine
  8
0
 62
256
370
-1
  6
BYLAYER
 10
-112.0
 20
340.0
 30
0.0
 11
-102.0
 21
339.99999999999989
 31
0.0
  0
LINE
  5
6F
100
AcDbEntity
100
AcDbLine
  8
0
 62
256
370
-1
  6
BYLAYER
 10
-100.0
 20
340.0
 30
0.0
 11
100.0
 21
340.00000000000011
 31
0.0
  0
LINE
  5
70
100
AcDbEntity
100
AcDbLine
  8
0
 62
256
370
-1
  6
BYLAYER
 10
102.0
 20
260.00000000000011
 30
0.0
 11
102.0
 21
270.00000000000011
 31
0.0
  0
LINE
  5
71
100
AcDbEntity
100
AcDbLine
  8
0
 62
256
370
-1
  6
BYLAYER
 10
102.0
 20
270.00000000000011
 30
0.0
 11
100.0
 21
270.00000000000011
 31
0.0
  0
LINE
  5
72
100
AcDbEntity
100
AcDbLine
  8
0
 62
256
370
-1
  6
BYLAYER
 10
-95.0
 20
230.0
 30
0.0
 11
-112.0
 21
230.00000000000009
 31
0.0
  0
LINE
  5
73
100
AcDbEntity
100
AcDbLine
  8
0
 62
256
370
-1
  6
BYLAYER
 10
-112.0
 20
230.00000000000009
 30
0.0
 11
-112.0
 21
210.00000000000017
 31
0.0
  0
LINE
  5
74
100
AcDbEntity
100
AcDbLine
  8
0
 62
256
370
-1
  6
BYLAYER
 10
-112.0
 20
210.00000000000017
 30
0.0
 11
-102.0
 21
210.00000000000009
 31
0.0
  0
LINE
  5
75
100
AcDbEntity
100
AcDbLine
  8
0
 62
256
370
-1
  6
BYLAYER
 10
-102.0
 20
210.00000000000009
 30
0.0
 11
-102.0
 21
220.00000000000009
 31
0.0
  0
LINE
  5
76
100
AcDbEntity
100
AcDbLine
  8
0
 62
256
370
-1
  6
BYLAYER
 10
-102.0
 20
220.00000000000009
 30
0.0
 11
-100.0
 21
220.00000000000009
 31
0.0
  0
LINE
  5
77
100
AcDbEntity
100
AcDbLine
  8
0
 62
256
370
-1
  6
BYLAYER
 10
-100.0
 20
220.00000000000009
 30
0.0
 11
-100.0
 21
200.00000000000009
 31
0.0
  0
LINE
  5
78
100
AcDbEntity
100
AcDbLine
  8
0
 62
256
370
-1
  6
BYLAYER
 10
200.0
 20
450.0
 30
0.0
 11
350.0
 21
450.0
 31
0.0
  0
LINE
  5
79
100
AcDbEntity
100
AcDbLine
  8
0
 62
256
370
-1
  6
BYLAYER
 10
350.0
 20
450.0
 30
0.0
 11
350.0
 21
200.0
 31
0.0
  0
LINE
  5
7A
100
AcDbEntity
100
AcDbLine
  8
0
 62
256
370
-1
  6
BYLAYER
 10
350.0
 20
200.0
 30
0.0
 11
200.0
 21
200.0
 31
0.0
  0
LINE
  5
7B
100
AcDbEntity
100
AcDbLine
  8
0
 62
256
370
-1
  6
BYLAYER
 10
200.0
 20
200.0
 30
0.0
 11
200.0
 21
450.0
 31
0.0
  0
LINE
  5
7C
100
AcDbEntity
100
AcDbLine
  8
0
 62
256
370
-1
  6
BYLAYER
 10
320.0
 20
302.0
 30
0.0
 11
340.0
 21
302.0
 31
0.0
  0
LINE
  5
7D
100
AcDbEntity
100
AcDbLine
  8
0
 62
256
370
-1
  6
BYLAYER
 10
340.0
 20
302.0
 30
0.0
 11
340.0
 21
298.0
 31
0.0
  0
LINE
  5
7E
100
AcDbEntity
100
AcDbLine
  8
0
 62
256
370
-1
  6
BYLAYER
 10
340.0
 20
298.0
 30
0.0
 11
320.0
 21
298.0
 31
0.0
  0
LINE
  5
7F
100
AcDbEntity
100
AcDbLine
  8
0
 62
256
370
-1
  6
BYLAYER
 10
320.0
 20
298.0
 30
0.0
 11
320.0
 21
302.0
 31
0.0
  0
LINE
  5
80
100
AcDbEntity
100
AcDbLine
  8
0
 62
256
370
-1
  6
BYLAYER
 10
241.0
 20
200.0
 30
0.0
 11
241.0
 21
210.0
 31
0.0
  0
LINE
  5
81
100
AcDbEntity
100
AcDbLine
  8
0
 62
256
370
-1
  6
BYLAYER
 10
241.0
 20
210.0
 30
0.0
 11
239.0
 21
210.0
 31
0.0
  0
LINE
  5
82
100
AcDbEntity
100
AcDbLine
  8
0
 62
256
370
-1
  6
BYLAYER
 10
239.0
 20
210.0
 30
0.0
 11
239.0
 21
200.0
 31
0.0
  0
LINE
  5
83
100
AcDbEntity
100
AcDbLine
  8
0
 62
256
370
-1
  6
BYLAYER
 10
309.0
 20
200.0
 30
0.0
 11
309.0
 21
210.0
 31
0.0
  0
LINE
  5
84
100
AcDbEntity
100
AcDbLine
  8
0
 62
256
370
-1
  6
BYLAYER
 10
309.0
 20
210.0
 30
0.0
 11
311.0
 21
210.0
 31
0.0
  0
LINE
  5
85
100
AcDbEntity
100
AcDbLine
  8
0
 62
256
370
-1
  6
BYLAYER
 10
311.0
 20
210.0
 30
0.0
 11
311.0
 21
200.0
 31
0.0
  0
LINE
  5
86
100
AcDbEntity
100
AcDbLine
  8
0
 62
256
370
-1
  6
BYLAYER
 10
350.0
 20
239.0
 30
0.0
 11
340.0
 21
239.0
 31
0.0
  0
LINE
  5
87
100
AcDbEntity
100
AcDbLine
  8
0
 62
256
370
-1
  6
BYLAYER
 10
340.0
 20
239.0
 30
0.0
 11
340.0
 21
241.0
 31
0.0
  0
LINE
  5
88
100
AcDbEntity
100
AcDbLine
  8
0
 62
256
370
-1
  6
BYLAYER
 10
340.0
 20
241.0
 30
0.0
 11
350.0
 21
241.0
 31
0.0
  0
LINE
  5
89
100
AcDbEntity
100
AcDbLine
  8
0
 62
256
370
-1
  6
BYLAYER
 10
239.0
 20
450.0
 30
0.0
 11
239.0
 21
440.0
 31
0.0
  0
LINE
  5
8A
100
AcDbEntity
100
AcDbLine
  8
0
 62
256
370
-1
  6
BYLAYER
 10
239.0
 20
440.0
 30
0.0
 11
241.0
 21
440.0
 31
0.0
  0
LINE
  5
8B
100
AcDbEntity
100
AcDbLine
  8
0
 62
256
370
-1
  6
BYLAYER
 10
241.0
 20
440.0
 30
0.0
 11
241.0
 21
450.0
 31
0.0
  0
LINE
  5
8C
100
AcDbEntity
100
AcDbLine
  8
0
 62
256
370
-1
  6
BYLAYER
 10
311.0
 20
450.0
 30
0.0
 11
311.0
 21
440.0
 31
0.0
  0
LINE
  5
8D
100
AcDbEntity
100
AcDbLine
  8
0
 62
256
370
-1
  6
BYLAYER
 10
311.0
 20
440.0
 30
0.0
 11
309.0
 21
440.0
 31
0.0
  0
LINE
  5
8E
100
AcDbEntity
100
AcDbLine
  8
0
 62
256
370
-1
  6
BYLAYER
 10
309.0
 20
440.0
 30
0.0
 11
309.0
 21
450.0
 31
0.0
  0
LINE
  5
8F
100
AcDbEntity
100
AcDbLine
  8
0
 62
1
420
16711680
370
-1
  6
BYLAYER
 10
340.0
 20
420.0
 30
0.0
 11
322.56885145046829
 21
220.76106038165051
 31
0.0
  0
LINE
  5
90
100
AcDbEntity
100
AcDbLine
  8
0
 62
256
370
-1
  6
BYLAYER
 10
332.01141590572479
 20
340.26146722824296
 30
0.0
 11
335.0
 21
340.0
 31
0.0
  0
LINE
  5
91
100
AcDbEntity
100
AcDbLine
  8
0
 62
256
370
-1
  6
BYLAYER
 10
335.0
 20
340.0
 30
0.0
 11
332.38532771757025
 21
310.11415905724766
 31
0.0
  0
LINE
  5
92
100
AcDbEntity
100
AcDbLine
  8
0
 62
256
370
-1
  6
BYLAYER
 10
332.38532771757025
 20
310.11415905724766
 30
0.0
 11
329.39674362329504
 21
310.37562628549063
 31
0.0
  0
LINE
  5
93
100
AcDbEntity
100
AcDbLine
  8
0
 62
256
370
-1
  6
BYLAYER
 10
329.39674362329504
 20
310.37562628549063
 30
0.0
 11
332.01141590572479
 21
340.26146722824296
 31
0.0
  0
LINE
  5
94
100
AcDbEntity
100
AcDbLine
  8
0
 62
256
370
-1
  6
BYLAYER
 10
327.65362876834189
 20
290.45173232365568
 30
0.0
 11
330.6422128626171
 21
290.19026509541271
 31
0.0
  0
LINE
  5
95
100
AcDbEntity
100
AcDbLine
  8
0
 62
256
370
-1
  6
BYLAYER
 10
330.6422128626171
 20
290.19026509541271
 30
0.0
 11
328.02754058018735
 21
260.30442415266037
 31
0.0
  0
LINE
  5
96
100
AcDbEntity
100
AcDbLine
  8
0
 62
256
370
-1
  6
BYLAYER
 10
328.02754058018735
 20
260.30442415266037
 30
0.0
 11
325.03895648591214
 21
260.56589138090334
 31
0.0
  0
LINE
  5
97
100
AcDbEntity
100
AcDbLine
  8
0
 62
256
370
-1
  6
BYLAYER
 10
325.03895648591214
 20
260.56589138090334
 30
0.0
 11
327.65362876834189
 21
290.45173232365568
 31
0.0
  0
LINE
  5
98
100
AcDbEntity
100
AcDbLine
  8
0
 62
1
420
16711680
370
-1
  6
BYLAYER
 10
183.10159371762387
 20
232.96286436632261
 30
0.0
 11
322.56885145046829
 21
220.76106038165051
 31
0.0
  0
LINE
  5
99
100
AcDbEntity
100
AcDbLine
  8
0
 62
256
370
-1
  6
BYLAYER
 10
248.0
 20
237.0
 30
0.0
 11
252.0
 21
237.0
 31
0.0
  0
LINE
  5
9A
100
AcDbEntity
100
AcDbLine
  8
0
 62
256
370
-1
  6
BYLAYER
 10
252.0
 20
237.0
 30
0.0
 11
252.0
 21
217.0
 31
0.0
  0
LINE
  5
9B
100
AcDbEntity
100
AcDbLine
  8
0
 62
256
370
-1
  6
BYLAYER
 10
252.0
 20
217.0
 30
0.0
 11
248.0
 21
217.0
 31
0.0
  0
LINE
  5
9C
100
AcDbEntity
100
AcDbLine
  8
0
 62
256
370
-1
  6
BYLAYER
 10
248.0
 20
217.0
 30
0.0
 11
248.0
 21
237.0
 31
0.0
  0
LINE
  5
9D
100
AcDbEntity
100
AcDbLine
  8
0
 62
256
370
-1
  6
BYLAYER
 10
210.17431148549531
 20
231.99238939618348
 30
0.0
 11
240.06015242824768
 21
229.37771711375376
 31
0.0
  0
LINE
  5
9E
100
AcDbEntity
100
AcDbLine
  8
0
 62
256
370
-1
  6
BYLAYER
 10
240.06015242824768
 20
229.37771711375376
 30
0.0
 11
239.88584094275237
 21
227.38532771757025
 31
0.0
  0
LINE
  5
9F
100
AcDbEntity
100
AcDbLine
  8
0
 62
256
370
-1
  6
BYLAYER
 10
239.88584094275237
 20
227.38532771757025
 30
0.0
 11
210.0
 21
230.0
 31
0.0
  0
LINE
  5
A0
100
AcDbEntity
100
AcDbLine
  8
0
 62
256
370
-1
  6
BYLAYER
 10
210.0
 20
230.0
 30
0.0
 11
210.17431148549531
 21
231.99238939618348
 31
0.0
  0
LINE
  5
A1
100
AcDbEntity
100
AcDbLine
  8
0
 62
256
370
-1
  6
BYLAYER
 10
259.9840463900826
 20
227.63460225880064
 30
0.0
 11
289.86988733283494
 21
225.01992997637069
 31
0.0
  0
LINE
  5
A2
100
AcDbEntity
100
AcDbLine
  8
0
 62
256
370
-1
  6
BYLAYER
 10
289.86988733283494
 20
225.01992997637069
 30
0.0
 11
289.69557584733963
 21
223.02754058018735
 31
0.0
  0
LINE
  5
A3
100
AcDbEntity
100
AcDbLine
  8
0
 62
256
370
-1
  6
BYLAYER
 10
289.69557584733963
 20
223.02754058018735
 30
0.0
 11
259.80973490458729
 21
225.6422128626171
 31
0.0
  0
LINE
  5
A4
100
AcDbEntity
100
AcDbLine
  8
0
 62
256
370
-1
  6
BYLAYER
 10
259.80973490458729
 20
225.6422128626171
 30
0.0
 11
259.9840463900826
 21
227.63460225880064
 31
0.0
  0
LINE
  5
A5
100
AcDbEntity
100
AcDbLine
  8
0
 62
256
370
-1
  6
BYLAYER
 10
-100.0
 20
290.0
 30
0.0
 11
-100.0
 21
310.0
 31
0.0
  0
LINE
  5
A6
100
AcDbEntity
100
AcDbLine
  8
0
 62
256
370
-1
  6
BYLAYER
 10
-100.0
 20
310.0
 30
0.0
 11
100.0
 21
310.0
 31
0.0
  0
LINE
  5
A7
100
AcDbEntity
100
AcDbLine
  8
0
 62
256
370
-1
  6
BYLAYER
 10
100.0
 20
310.0
 30
0.0
 11
99.999999999999986
 21
290.00000000000023
 31
0.0
  0
LINE
  5
A8
100
AcDbEntity
100
AcDbLine
  8
0
 62
256
370
-1
  6
BYLAYER
 10
350.0
 20
429.0
 30
0.0
 11
340.0
 21
429.0
 31
0.0
  0
LINE
  5
A9
100
AcDbEntity
100
AcDbLine
  8
0
 62
256
370
-1
  6
BYLAYER
 10
340.0
 20
429.0
 30
0.0
 11
340.0
 21
431.0
 31
0.0
  0
LINE
  5
AA
100
AcDbEntity
100
AcDbLine
  8
0
 62
256
370
-1
  6
BYLAYER
 10
340.0
 20
431.0
 30
0.0
 11
350.0
 21
431.0
 31
0.0
  0
LINE
  5
AB
100
AcDbEntity
100
AcDbLine
  8
0
 62
1
420
16711680
370
-1
  6
BYLAYER
 10
200.53274226715547
 20
432.2018039846721
 30
0.0
 11
183.10159371762387
 21
232.96286436632261
 31
0.0
  0
LINE
  5
AC
100
AcDbEntity
100
AcDbLine
  8
0
 62
1
420
16711680
370
-1
  6
BYLAYER
 10
340.0
 20
420.0
 30
0.0
 11
200.53274226715558
 21
432.20180398467221
 31
0.0
  0
DIMENSION
  5
AD
100
AcDbEntity
  8
0
 62
9
420
12632256
370
-1
  6
BYLAYER
100
AcDbDimension
 10
180.0
 20
200.0
 30
0.0
 11
178.125
 21
215.0
 31
0.0
 70
0
 71
8
 72
2
 41
1.0
 42
0.0
  1

  3
Standard
100
AcDbAlignedDimension
 13
209.99999999999997
 23
230.0
 33
0.0
 14
200.0
 24
200.0
 34
0.0
 50
90.0
100
AcDbRotatedDimension
1001
ACAD
1000
DSTYLE
1002
{
1070
144
1040
1
1002
}
  0
DIMENSION
  5
AE
100
AcDbEntity
  8
0
 62
9
420
12632256
370
-1
  6
BYLAYER
100
AcDbDimension
 10
200.0
 20
190.0
 30
0.0
 11
205.0
 21
191.875
 31
0.0
 70
0
 71
8
 72
2
 41
1.0
 42
0.0
  1

  3
Standard
100
AcDbAlignedDimension
 13
209.99999999999997
 23
230.0
 33
0.0
 14
200.0
 24
190.0
 34
0.0
 50
0.0
100
AcDbRotatedDimension
1001
ACAD
1000
DSTYLE
1002
{
1070
144
1040
1
1002
}
  0
DIMENSION
  5
AF
100
AcDbEntity
  8
0
 62
9
420
12632256
370
-1
  6
BYLAYER
100
AcDbDimension
 10
350.0
 20
348.0
 30
0.0
 11
342.5
 21
349.875
 31
0.0
 70
0
 71
8
 72
2
 41
1.0
 42
0.0
  1

  3
Standard
100
AcDbAlignedDimension
 13
335.0
 23
340.0
 33
0.0
 14
350.0
 24
348.0
 34
0.0
 50
0.0
100
AcDbRotatedDimension
1001
ACAD
1000
DSTYLE
1002
{
1070
144
1040
1
1002
}
  0
DIMENSION
  5
B0
100
AcDbEntity
  8
0
 62
9
420
12632256
370
-1
  6
BYLAYER
100
AcDbDimension
 10
370.0
 20
448.0
 30
0.0
 11
368.125
 21
395.0
 31
0.0
 70
0
 71
8
 72
2
 41
1.0
 42
0.0
  1

  3
Standard
100
AcDbAlignedDimension
 13
335.0
 23
340.0
 33
0.0
 14
350.0
 24
450.0
 34
0.0
 50
90.0
100
AcDbRotatedDimension
1001
ACAD
1000
DSTYLE
1002
{
1070
144
1040
1
1002
}
  0
DIMENSION
  5
B1
100
AcDbEntity
  8
0
 62
9
420
12632256
370
-1
  6
BYLAYER
100
AcDbDimension
 10
350.0
 20
308.0
 30
0.0
 11
345.0
 21
309.875
 31
0.0
 70
0
 71
8
 72
2
 41
1.0
 42
0.0
  1

  3
Standard
100
AcDbAlignedDimension
 13
340.0
 23
302.0
 33
0.0
 14
350.0
 24
308.0
 34
0.0
 50
0.0
100
AcDbRotatedDimension
1001
ACAD
1000
DSTYLE
1002
{
1070
144
1040
1
1002
}
  0
DIMENSION
  5
B2
100
AcDbEntity
  8
0
 62
9
420
12632256
370
-1
  6
BYLAYER
100
AcDbDimension
 10
260.0
 20
200.0
 30
0.0
 11
258.125
 21
208.5
 31
0.0
 70
0
 71
8
 72
2
 41
1.0
 42
0.0
  1

  3
Standard
100
AcDbAlignedDimension
 13
252.0
 23
217.0
 33
0.0
 14
260.0
 24
200.0
 34
0.0
 50
90.0
100
AcDbRotatedDimension
1001
ACAD
1000
DSTYLE
1002
{
1070
144
1040
1
1002
}
  0
DIMENSION
  5
B3
100
AcDbEntity
  8
0
 62
9
420
12632256
370
-1
  6
BYLAYER
100
AcDbDimension
 10
249.0
 20
180.0
 30
0.0
 11
225.0
 21
181.875
 31
0.0
 70
0
 71
8
 72
2
 41
1.0
 42
0.0
  1

  3
Standard
100
AcDbAlignedDimension
 13
200.0
 23
200.0
 33
0.0
 14
250.0
 24
217.0
 34
0.0
 50
0.0
100
AcDbRotatedDimension
1001
ACAD
1000
DSTYLE
1002
{
1070
144
1040
1
1002
}
  0
DIMENSION
  5
B4
100
AcDbEntity
  8
0
 62
9
420
12632256
370
-1
  6
BYLAYER
100
AcDbDimension
 10
370.0
 20
298.0
 30
0.0
 11
368.125
 21
250.0
 31
0.0
 70
0
 71
8
 72
2
 41
1.0
 42
0.0
  1

  3
Standard
100
AcDbAlignedDimension
 13
350.0
 23
200.0
 33
0.0
 14
340.0
 24
300.0
 34
0.0
 50
90.0
100
AcDbRotatedDimension
1001
ACAD
1000
DSTYLE
1002
{
1070
144
1040
1
1002
}
  0
DIMENSION
  5
B5
100
AcDbEntity
  8
0
 62
9
420
12632256
370
-1
  6
BYLAYER
100
AcDbDimension
 10
250.0
 20
190.0
 30
0.0
 11
230.0
 21
191.875
 31
0.0
 70
0
 71
8
 72
2
 41
1.0
 42
0.0
  1

  3
Standard
100
AcDbAlignedDimension
 13
209.99999999999997
 23
230.0
 33
0.0
 14
250.0
 24
190.0
 34
0.0
 50
0.0
100
AcDbRotatedDimension
1001
ACAD
1000
DSTYLE
1002
{
1070
144
1040
1
1002
}
  0
DIMENSION
  5
B6
100
AcDbEntity
  8
0
 62
9
420
12632256
370
-1
  6
BYLAYER
100
AcDbDimension
 10
370.0
 20
300.0
 30
0.0
 11
368.125
 21
320.0
 31
0.0
 70
0
 71
8
 72
2
 41
1.0
 42
0.0
  1

  3
Standard
100
AcDbAlignedDimension
 13
335.0
 23
339.99999999999994
 33
0.0
 14
340.0
 24
300.0
 34
0.0
 50
90.0
100
AcDbRotatedDimension
1001
ACAD
1000
DSTYLE
1002
{
1070
144
1040
1
1002
}
  0
DIMENSION
  5
B7
100
AcDbEntity
  8
0
 62
9
420
12632256
370
-1
  6
BYLAYER
100
AcDbDimension
 10
350.0
 20
250.0
 30
0.0
 11
339.01377029009365
 21
251.875
 31
0.0
 70
0
 71
8
 72
2
 41
1.0
 42
0.0
  1

  3
Standard
100
AcDbAlignedDimension
 13
328.02754058018729
 23
260.30442415266037
 33
0.0
 14
350.0
 24
250.0
 34
0.0
 50
0.0
100
AcDbRotatedDimension
1001
ACAD
1000
DSTYLE
1002
{
1070
144
1040
1
1002
}
  0
DIMENSION
  5
B8
100
AcDbEntity
  8
0
 62
9
420
12632256
370
-1
  6
BYLAYER
100
AcDbDimension
 10
285.0
 20
200.0
 30
0.0
 11
283.125
 21
211.51377029009367
 31
0.0
 70
0
 71
8
 72
2
 41
1.0
 42
0.0
  1

  3
Standard
100
AcDbAlignedDimension
 13
289.69557584733968
 23
223.02754058018735
 33
0.0
 14
285.0
 24
200.0
 34
0.0
 50
90.0
100
AcDbRotatedDimension
1001
ACAD
1000
DSTYLE
1002
{
1070
144
1040
1
1002
}
  0
DIMENSION
  5
B9
100
AcDbEntity
  8
0
 62
9
420
12632256
370
-1
  6
BYLAYER
100
AcDbDimension
 10
360.0
 20
260.0
 30
0.0
 11
358.125
 21
230.15221207633019
 31
0.0
 70
0
 71
8
 72
2
 41
1.0
 42
0.0
  1

  3
Standard
100
AcDbAlignedDimension
 13
328.02754058018729
 23
260.30442415266037
 33
0.0
 14
350.0
 24
200.0
 34
0.0
 50
90.0
100
AcDbRotatedDimension
1001
ACAD
1000
DSTYLE
1002
{
1070
144
1040
1
1002
}
  0
DIMENSION
  5
BA
100
AcDbEntity
  8
0
 62
9
420
12632256
370
-1
  6
BYLAYER
100
AcDbDimension
 10
350.0
 20
190.0
 30
0.0
 11
319.84778792366984
 21
191.875
 31
0.0
 70
0
 71
8
 72
2
 41
1.0
 42
0.0
  1

  3
Standard
100
AcDbAlignedDimension
 13
289.69557584733968
 23
223.02754058018735
 33
0.0
 14
350.0
 24
200.0
 34
0.0
 50
0.0
100
AcDbRotatedDimension
1001
ACAD
1000
DSTYLE
1002
{
1070
144
1040
1
1002
}
  0
DIMENSION
  5
BB
100
AcDbEntity
  8
0
 62
9
420
12632256
370
-1
  6
BYLAYER
100
AcDbDimension
 10
140.0
 20
240.0
 30
0.0
 11
138.125
 21
250.00000000000011
 31
0.0
 70
0
 71
8
 72
2
 41
1.0
 42
0.0
  1

  3
Standard
100
AcDbAlignedDimension
 13
112.0
 23
260.00000000000017
 33
0.0
 14
112.0
 24
240.00000000000006
 34
0.0
 50
90.0
100
AcDbRotatedDimension
1001
ACAD
1000
DSTYLE
1002
{
1070
144
1040
1
1002
}
  0
DIMENSION
  5
BC
100
AcDbEntity
  8
0
 62
9
420
12632256
370
-1
  6
BYLAYER
100
AcDbDimension
 10
160.0
 20
310.0
 30
0.0
 11
158.125
 21
255.0
 31
0.0
 70
0
 71
8
 72
2
 41
1.0
 42
0.0
  1

  3
Standard
100
AcDbAlignedDimension
 13
100.0
 23
200.0
 33
0.0
 14
100.0
 24
310.0
 34
0.0
 50
90.0
100
AcDbRotatedDimension
1001
ACAD
1000
DSTYLE
1002
{
1070
144
1040
1
1002
}
  0
DIMENSION
  5
BD
100
AcDbEntity
  8
0
 62
9
420
12632256
370
-1
  6
BYLAYER
100
AcDbDimension
 10
140.0
 20
240.00000000000006
 30
0.0
 11
138.125
 21
225.00000000000006
 31
0.0
 70
0
 71
8
 72
2
 41
1.0
 42
0.0
  1

  3
Standard
100
AcDbAlignedDimension
 13
100.0
 23
210.00000000000011
 33
0.0
 14
107.0
 24
240.00000000000003
 34
0.0
 50
90.0
100
AcDbRotatedDimension
1001
ACAD
1000
DSTYLE
1002
{
1070
144
1040
1
1002
}
  0
DIMENSION
  5
BE
100
AcDbEntity
  8
0
 62
9
420
12632256
370
-1
  6
BYLAYER
100
AcDbDimension
 10
139.58371534222715
 20
257.50000000000017
 30
0.0
 11
137.70871534222715
 21
275.00000000000011
 31
0.0
 70
0
 71
8
 72
2
 41
1.0
 42
0.0
  1

  3
Standard
100
AcDbAlignedDimension
 13
99.999999999999986
 23
290.00000000000006
 33
0.0
 14
112.0
 24
260.00000000000017
 34
0.0
 50
90.0
100
AcDbRotatedDimension
1001
ACAD
1000
DSTYLE
1002
{
1070
144
1040
1
1002
}
  0
LINE
  5
BF
100
AcDbEntity
100
AcDbLine
  8
0
 62
256
370
-1
  6
BYLAYER
 10
-100.0
 20
240.0
 30
0.0
 11
-95.0
 21
240.0
 31
0.0
  0
LINE
  5
C0
100
AcDbEntity
100
AcDbLine
  8
0
 62
256
370
-1
  6
BYLAYER
 10
-95.0
 20
240.0
 30
0.0
 11
-95.0
 21
230.0
 31
0.0
  0
LINE
  5
C1
100
AcDbEntity
100
AcDbLine
  8
0
 62
256
370
-1
  6
BYLAYER
 10
89.999999999999986
 20
210.00000000000009
 30
0.0
 11
99.999999999999986
 21
210.00000000000011
 31
0.0
  0
LINE
  5
C2
100
AcDbEntity
100
AcDbLine
  8
0
 62
256
370
-1
  6
BYLAYER
 10
90.0
 20
230.0
 30
0.0
 11
90.0
 21
210.00000000000009
 31
0.0
  0
LINE
  5
C3
100
AcDbEntity
100
AcDbLine
  8
0
 62
256
370
-1
  6
BYLAYER
 10
-100.0
 20
260.00000000000006
 30
0.0
 11
-90.0
 21
260.0
 31
0.0
  0
LINE
  5
C4
100
AcDbEntity
100
AcDbLine
  8
0
 62
256
370
-1
  6
BYLAYER
 10
-90.0
 20
260.0
 30
0.0
 11
-90.0
 21
280.0
 31
0.0
  0
LINE
  5
C5
100
AcDbEntity
100
AcDbLine
  8
0
 62
256
370
-1
  6
BYLAYER
 10
95.000000000000028
 20
279.99999999999989
 30
0.0
 11
95.0
 21
290.0
 31
0.0
  0
LINE
  5
C6
100
AcDbEntity
100
AcDbLine
  8
0
 62
256
370
-1
  6
BYLAYER
 10
95.0
 20
290.0
 30
0.0
 11
99.999999999999986
 21
290.00000000000011
 31
0.0
  0
DIMENSION
  5
C7
100
AcDbEntity
  8
0
 62
9
420
12632256
370
-1
  6
BYLAYER
100
AcDbDimension
 10
-80.0
 20
240.0
 30
0.0
 11
-81.875
 21
230.00000000000009
 31
0.0
 70
0
 71
8
 72
2
 41
1.0
 42
0.0
  1

  3
Standard
100
AcDbAlignedDimension
 13
-100.0
 23
220.00000000000009
 33
0.0
 14
99.999999999999986
 24
240.00000000000009
 34
0.0
 50
90.0
100
AcDbRotatedDimension
1001
ACAD
1000
DSTYLE
1002
{
1070
144
1040
1
1002
}
  0
DIMENSION
  5
C8
100
AcDbEntity
  8
0
 62
9
420
12632256
370
-1
  6
BYLAYER
100
AcDbDimension
 10
-80.0
 20
269.0
 30
0.0
 11
-81.875
 21
280.00000000000011
 31
0.0
 70
0
 71
8
 72
2
 41
1.0
 42
0.0
  1

  3
Standard
100
AcDbAlignedDimension
 13
100.0
 23
270.00000000000011
 33
0.0
 14
-100.0
 24
290.00000000000011
 34
0.0
 50
90.0
100
AcDbRotatedDimension
1001
ACAD
1000
DSTYLE
1002
{
1070
144
1040
1
1002
}
  0
DIMENSION
  5
C9
100
AcDbEntity
  8
0
 62
9
420
12632256
370
-1
  6
BYLAYER
100
AcDbDimension
 10
-70.0
 20
200.00000000000009
 30
0.0
 11
-71.875
 21
220.0
 31
0.0
 70
0
 71
8
 72
2
 41
1.0
 42
0.0
  1

  3
Standard
100
AcDbAlignedDimension
 13
-80.0
 23
240.0
 33
0.0
 14
-70.0
 24
200.0
 34
0.0
 50
90.0
100
AcDbRotatedDimension
1001
ACAD
1000
DSTYLE
1002
{
1070
144
1040
1
1002
}
  0
DIMENSION
  5
CA
100
AcDbEntity
  8
0
 62
9
420
12632256
370
-1
  6
BYLAYER
100
AcDbDimension
 10
-80.0
 20
240.0
 30
0.0
 11
-81.875
 21
255.00000000000003
 31
0.0
 70
0
 71
8
 72
2
 41
1.0
 42
0.0
  1

  3
Standard
100
AcDbAlignedDimension
 13
-80.0
 23
270.00000000000006
 33
0.0
 14
-80.0
 24
240.0
 34
0.0
 50
90.0
100
AcDbRotatedDimension
1001
ACAD
1000
DSTYLE
1002
{
1070
144
1040
1
1002
}
  0
DIMENSION
  5
CB
100
AcDbEntity
  8
0
 62
9
420
12632256
370
-1
  6
BYLAYER
100
AcDbDimension
 10
-70.0
 20
270.0
 30
0.0
 11
-71.875
 21
290.0
 31
0.0
 70
0
 71
8
 72
2
 41
1.0
 42
0.0
  1

  3
Standard
100
AcDbAlignedDimension
 13
-70.0
 23
310.0
 33
0.0
 14
-70.0
 24
270.0
 34
0.0
 50
90.0
100
AcDbRotatedDimension
1001
ACAD
1000
DSTYLE
1002
{
1070
144
1040
1
1002
}
  0
DIMENSION
  5
CC
100
AcDbEntity
  8
0
 62
9
420
12632256
370
-1
  6
BYLAYER
100
AcDbDimension
 10
100.0
 20
245.0
 30
0.0
 11
103.5
 21
246.875
 31
0.0
 70
0
 71
8
 72
2
 41
1.0
 42
0.0
  1

  3
Standard
100
AcDbAlignedDimension
 13
107.0
 23
240.00000000000006
 33
0.0
 14
100.0
 24
245.0
 34
0.0
 50
0.0
100
AcDbRotatedDimension
1001
ACAD
1000
DSTYLE
1002
{
1070
144
1040
1
1002
}
  0
DIMENSION
  5
CD
100
AcDbEntity
  8
0
 62
9
420
12632256
370
-1
  6
BYLAYER
100
AcDbDimension
 10
95.000000000000014
 20
284.99999999999994
 30
0.0
 11
97.5
 21
286.87499999999994
 31
0.0
 70
0
 71
8
 72
2
 41
1.0
 42
0.0
  1

  3
Standard
100
AcDbAlignedDimension
 13
99.999999999999986
 23
290.00000000000006
 33
0.0
 14
95.000000000000014
 24
284.99999999999994
 34
0.0
 50
0.0
100
AcDbRotatedDimension
1001
ACAD
1000
DSTYLE
1002
{
1070
144
1040
1
1002
}
  0
DIMENSION
  5
CE
100
AcDbEntity
  8
0
 62
9
420
12632256
370
-1
  6
BYLAYER
100
AcDbDimension
 10
100.0
 20
255.00000000000011
 30
0.0
 11
101.0
 21
256.87500000000011
 31
0.0
 70
0
 71
8
 72
2
 41
1.0
 42
0.0
  1

  3
Standard
100
AcDbAlignedDimension
 13
102.0
 23
260.00000000000006
 33
0.0
 14
100.0
 24
255.00000000000011
 34
0.0
 50
0.0
100
AcDbRotatedDimension
1001
ACAD
1000
DSTYLE
1002
{
1070
144
1040
1
1002
}
  0
ENDSEC
  0
SECTION
  2
OBJECTS
  0
DICTIONARY
  5
C
100
AcDbDictionary
280
0
281
1
  3
ACAD_GROUP
350
D
  3
ACAD_LAYOUT
350
1A
  3
ACAD_MLINESTYLE
350
17
  3
ACAD_PLOTSETTINGS
350
19
  3
ACAD_PLOTSTYLENAME
350
E
  3
AcDbVariableDictionary
350
CF
  3
QCAD_OBJECTS
350
D0
  0
DICTIONARY
  5
D
100
AcDbDictionary
280
0
281
1
  0
ACDBDICTIONARYWDFLT
  5
E
100
AcDbDictionary
281
1
  3
Normal
350
F
100
AcDbDictionaryWithDefault
340
F
  0
ACDBPLACEHOLDER
  5
F
  0
DICTIONARY
  5
17
100
AcDbDictionary
280
0
281
1
  3
Standard
350
18
  0
MLINESTYLE
  5
18
100
AcDbMlineStyle
  2
STANDARD
 70
0
  3

 62
256
 51
90.0
 52
90.0
 71
2
 49
0.5
 62
256
  6
BYLAYER
 49
-0.5
 62
256
  6
BYLAYER
  0
DICTIONARY
  5
19
100
AcDbDictionary
280
0
281
1
  0
DICTIONARY
  5
1A
100
AcDbDictionary
281
1
  3
Layout1
350
1E
  3
Layout2
350
26
  3
Model
350
22
  0
LAYOUT
  5
1E
100
AcDbPlotSettings
  1

  2
none_device
  4

  6

 40
0.0
 41
0.0
 42
0.0
 43
0.0
 44
0.0
 45
0.0
 46
0.0
 47
0.0
 48
0.0
 49
0.0
140
0.0
141
0.0
142
1.0
143
1.0
 70
688
 72
0
 73
0
 74
5
  7

 75
16
147
1.0
148
0.0
149
0.0
100
AcDbLayout
  1
Layout1
 70
1
 71
1
 10
0.0
 20
0.0
 11
420.0
 21
297.0
 12
0.0
 22
0.0
 32
0.0
 14
100000000000000000000.0
 24
100000000000000000000.0
 34
100000000000000000000.0
 15
-100000000000000000000.0
 25
-100000000000000000000.0
 35
-100000000000000000000.0
146
0.0
 13
0.0
 23
0.0
 33
0.0
 16
1.0
 26
0.0
 36
0.0
 17
0.0
 27
1.0
 37
0.0
 76
0
330
1B
  0
LAYOUT
  5
22
100
AcDbPlotSettings
  1

  2
none_device
  4

  6

 40
0.0
 41
0.0
 42
0.0
 43
0.0
 44
0.0
 45
0.0
 46
0.0
 47
0.0
 48
0.0
 49
0.0
140
0.0
141
0.0
142
1.0
143
1.0
 70
1712
 72
0
 73
0
 74
0
  7

 75
0
147
1.0
148
0.0
149
0.0
100
AcDbLayout
  1
Model
 70
1
 71
0
 10
0.0
 20
0.0
 11
12.0
 21
9.0
 12
0.0
 22
0.0
 32
0.0
 14
0.0
 24
0.0
 34
0.0
 15
0.0
 25
0.0
 35
0.0
146
0.0
 13
0.0
 23
0.0
 33
0.0
 16
1.0
 26
0.0
 36
0.0
 17
0.0
 27
1.0
 37
0.0
 76
0
330
1F
  0
LAYOUT
  5
26
100
AcDbPlotSettings
  1

  2
none_device
  4

  6

 40
0.0
 41
0.0
 42
0.0
 43
0.0
 44
0.0
 45
0.0
 46
0.0
 47
0.0
 48
0.0
 49
0.0
140
0.0
141
0.0
142
1.0
143
1.0
 70
688
 72
0
 73
0
 74
5
  7

 75
16
147
1.0
148
0.0
149
0.0
100
AcDbLayout
  1
Layout2
 70
1
 71
2
 10
0.0
 20
0.0
 11
12.0
 21
9.0
 12
0.0
 22
0.0
 32
0.0
 14
0.0
 24
0.0
 34
0.0
 15
0.0
 25
0.0
 35
0.0
146
0.0
 13
0.0
 23
0.0
 33
0.0
 16
1.0
 26
0.0
 36
0.0
 17
0.0
 27
1.0
 37
0.0
 76
0
330
23
  0
DICTIONARY
  5
CF
100
AcDbDictionary
281
1
  3
DIMASSOC
350
D2
  3
HIDETEXT
350
D1
  0
DICTIONARYVAR
  5
D1
100
DictionaryVariables
280
0
  1
2
  0
DICTIONARYVAR
  5
D2
100
DictionaryVariables
280
0
  1
1
  0
DICTIONARY
  5
D0
100
AcDbDictionary
281
1
  3
Grid/DisplayGrid00
350
D3
  3
Grid/DisplayGrid01
350
D4
  3
Grid/DisplayGrid02
350
D5
  3
Grid/DisplayGrid03
350
D6
  3
Grid/GridSpacingX00
350
D7
  3
Grid/GridSpacingX01
350
D8
  3
Grid/GridSpacingX02
350
D9
  3
Grid/GridSpacingX03
350
DA
  3
Grid/GridSpacingY00
350
DB
  3
Grid/GridSpacingY01
350
DC
  3
Grid/GridSpacingY02
350
DD
  3
Grid/GridSpacingY03
350
DE
  3
Grid/IsometricGrid00
350
DF
  3
Grid/IsometricGrid01
350
E0
  3
Grid/IsometricGrid02
350
E1
  3
Grid/IsometricGrid03
350
E2
  3
Grid/IsometricProjection00
350
E3
  3
Grid/IsometricProjection01
350
E4
  3
Grid/IsometricProjection02
350
E5
  3
Grid/IsometricProjection03
350
E6
  3
Grid/MetaGridSpacingX00
350
E7
  3
Grid/MetaGridSpacingX01
350
E8
  3
Grid/MetaGridSpacingX02
350
E9
  3
Grid/MetaGridSpacingX03
350
EA
  3
Grid/MetaGridSpacingY00
350
EB
  3
Grid/MetaGridSpacingY01
350
EC
  3
Grid/MetaGridSpacingY02
350
ED
  3
Grid/MetaGridSpacingY03
350
EE
  3
MultiPageSettings/Columns
350
EF
  3
MultiPageSettings/GlueMarginsBottom
350
F0
  3
MultiPageSettings/GlueMarginsLeft
350
F1
  3
MultiPageSettings/GlueMarginsRight
350
F2
  3
MultiPageSettings/GlueMarginsTop
350
F3
  3
MultiPageSettings/PrintCropMarks
350
F4
  3
MultiPageSettings/Rows
350
F5
  3
PageSettings/OffsetX
350
F6
  3
PageSettings/OffsetY
350
F7
  3
PageSettings/PageOrientation
350
F8
  3
PageSettings/PaperHeight
350
F9
  3
PageSettings/PaperWidth
350
FA
  3
PageSettings/Scale
350
FB
  3
PageSettings/ShowPaperBorders
350
FC
  3
UnitSettings/PaperUnit
350
FD
  0
XRECORD
  5
D3
330
D0
100
AcDbXrecord
280
1
290
1
  0
XRECORD
  5
D4
330
D0
100
AcDbXrecord
280
1
290
1
  0
XRECORD
  5
D5
330
D0
100
AcDbXrecord
280
1
290
1
  0
XRECORD
  5
D6
330
D0
100
AcDbXrecord
280
1
290
1
  0
XRECORD
  5
D7
330
D0
100
AcDbXrecord
280
1
1000
auto
  0
XRECORD
  5
D8
330
D0
100
AcDbXrecord
280
1
1000
auto
  0
XRECORD
  5
D9
330
D0
100
AcDbXrecord
280
1
1000
auto
  0
XRECORD
  5
DA
330
D0
100
AcDbXrecord
280
1
1000
auto
  0
XRECORD
  5
DB
330
D0
100
AcDbXrecord
280
1
1000
auto
  0
XRECORD
  5
DC
330
D0
100
AcDbXrecord
280
1
1000
auto
  0
XRECORD
  5
DD
330
D0
100
AcDbXrecord
280
1
1000
auto
  0
XRECORD
  5
DE
330
D0
100
AcDbXrecord
280
1
1000
auto
  0
XRECORD
  5
DF
330
D0
100
AcDbXrecord
280
1
290
0
  0
XRECORD
  5
E0
330
D0
100
AcDbXrecord
280
1
290
0
  0
XRECORD
  5
E1
330
D0
100
AcDbXrecord
280
1
290
0
  0
XRECORD
  5
E2
330
D0
100
AcDbXrecord
280
1
290
0
  0
XRECORD
  5
E3
330
D0
100
AcDbXrecord
280
1
 90
0
  0
XRECORD
  5
E4
330
D0
100
AcDbXrecord
280
1
 90
0
  0
XRECORD
  5
E5
330
D0
100
AcDbXrecord
280
1
 90
0
  0
XRECORD
  5
E6
330
D0
100
AcDbXrecord
280
1
 90
0
  0
XRECORD
  5
E7
330
D0
100
AcDbXrecord
280
1
1000
auto
  0
XRECORD
  5
E8
330
D0
100
AcDbXrecord
280
1
1000
auto
  0
XRECORD
  5
E9
330
D0
100
AcDbXrecord
280
1
1000
auto
  0
XRECORD
  5
EA
330
D0
100
AcDbXrecord
280
1
1000
auto
  0
XRECORD
  5
EB
330
D0
100
AcDbXrecord
280
1
1000
auto
  0
XRECORD
  5
EC
330
D0
100
AcDbXrecord
280
1
1000
auto
  0
XRECORD
  5
ED
330
D0
100
AcDbXrecord
280
1
1000
auto
  0
XRECORD
  5
EE
330
D0
100
AcDbXrecord
280
1
1000
auto
  0
XRECORD
  5
EF
330
D0
100
AcDbXrecord
280
1
 90
1
  0
XRECORD
  5
F0
330
D0
100
AcDbXrecord
280
1
 40
10.0
  0
XRECORD
  5
F1
330
D0
100
AcDbXrecord
280
1
 40
10.0
  0
XRECORD
  5
F2
330
D0
100
AcDbXrecord
280
1
 40
10.0
  0
XRECORD
  5
F3
330
D0
100
AcDbXrecord
280
1
 40
10.0
  0
XRECORD
  5
F4
330
D0
100
AcDbXrecord
280
1
290
0
  0
XRECORD
  5
F5
330
D0
100
AcDbXrecord
280
1
 90
1
  0
XRECORD
  5
F6
330
D0
100
AcDbXrecord
280
1
 40
0.0
  0
XRECORD
  5
F7
330
D0
100
AcDbXrecord
280
1
 40
0.0
  0
XRECORD
  5
F8
330
D0
100
AcDbXrecord
280
1
1000
Portrait
  0
XRECORD
  5
F9
330
D0
100
AcDbXrecord
280
1
 40
297.0
  0
XRECORD
  5
FA
330
D0
100
AcDbXrecord
280
1
 40
210.0
  0
XRECORD
  5
FB
330
D0
100
AcDbXrecord
280
1
1000
1:1
  0
XRECORD
  5
FC
330
D0
100
AcDbXrecord
280
1
290
1
  0
XRECORD
  5
FD
330
D0
100
AcDbXrecord
280
1
 90
4
  0
ENDSEC
  0
EOF
